<?xml version="1.0" standalone="no"?>
<!DOCTYPE svg PUBLIC "-//W3C//DTD SVG 1.1//EN" "http://www.w3.org/Graphics/SVG/1.1/DTD/svg11.dtd">
<svg xmlns="http://www.w3.org/2000/svg">
<defs >
<font id="Amiri" horiz-adv-x="1421" ><font-face
    font-family="Amiri"
    units-per-em="2048"
    panose-1="0 0 5 0 0 0 0 0 0 0"
    ascent="2300"
    descent="-1300"
    alphabetic="0" />
<glyph unicode=" " glyph-name="space" horiz-adv-x="600" />
<glyph unicode="!" glyph-name="exclam" horiz-adv-x="540" d="M374 132Q374 192 418 235T524 278T630 233T674 126Q674 66 631 22T526 -22Q463 -22 419 23T374 132ZM276 1374Q326 1374 363 1337T400 1238Q400 1198 368 890Q340 653 316 442Q310 391 274 391Q233
391 227 444Q196 672 176 868Q144 1170 144 1240Q144 1302 182 1338T276 1374Z" />
<glyph unicode="&quot;" glyph-name="quotedbl" horiz-adv-x="662" d="M516 1400Q554 1400 578 1368Q578 1317 567 1160T544 908Q528 880 496 862Q482 862 476 878Q392 1164 392 1234Q392 1290 427 1345T516 1400ZM196 1400Q234 1400 258 1368Q258 1317 247 1160T224
908Q208 880 176 862Q162 862 156 878Q72 1164 72 1234Q72 1290 107 1345T196 1400Z" />
<glyph unicode="#" glyph-name="numbersign" horiz-adv-x="950" d="M657 430H788Q800 425 799 398T785 336T760 296H636L600 72Q598 65 579 56T538 46Q529 46 524 48T517 52L516 54L555 296H312L276 72Q274 65 255 56T216 46Q207 46 202 48T195 52L194 54L233
296H102Q92 301 94 329T110 391T136 430H254L294 678H158Q148 683 150 711T165 773T190 812H316L352 1036Q361 1062 410 1062Q427 1062 436 1056L396 812H638L674 1036Q683 1062 732 1062Q749 1062 758 1056L719 812H842Q854 807 854 780T841 718T816 678H697L657
430ZM576 430L616 678H375L334 430H576Z" />
<glyph unicode="$" glyph-name="dollar" horiz-adv-x="1036" d="M576 1336Q654 1336 654 1320L646 1272Q669 1268 688 1264Q718 1258 771 1246T852 1228Q860 1151 872 910Q864 900 852 900Q797 900 794 912Q788 955 768 1003T717 1097T639 1172Q635 1175 631 1177L566
782Q606 753 654 722Q671 711 702 693T752 663T799 631T843 593T880 547T910 490T928 421T936 334Q936 233 875 151T719 24T518 -20Q480 -20 436 -17L426 -80Q404 -80 376 -76T348 -62L357 -8Q265 5 154 30Q141 86 127 194T108 356Q113 364 134 373T164 382Q185
382 188 366Q195 325 220 274T284 174Q321 129 374 97L445 535Q410 559 402 564Q286 642 254 668Q143 761 126 881Q122 907 122 936Q122 1031 183 1112T337 1237T530 1282Q548 1282 567 1281L576 1336ZM518 486L450 65Q474 60 498 60Q529 60 558 68T617 96T665
154T684 248Q684 284 669 320T634 381T578 438T520 485Q519 485 518 486ZM495 840L554 1201Q547 1202 540 1202Q474 1202 425 1163T376 1036Q376 946 495 840Z" />
<glyph unicode="%" glyph-name="percent" horiz-adv-x="1372" d="M374 1222Q339 1222 317 1202T284 1146T271 1077T268 1000Q268 937 281 880T327 779T406 736Q441 736 464 755T497 811T510 879T514 954Q514 1017 500 1076T453 1178T374 1222ZM390 1282Q527 1282
615 1197T704 984Q704 857 614 766T392 674Q254 674 166 760T78 974Q78 1101 168 1191T390 1282ZM968 548Q933 548 911 528T878 472T865 403T862 326Q862 263 875 206T921 105T1000 62Q1035 62 1058 81T1091 137T1104 205T1108 280Q1108 343 1094 402T1047 504T968
548ZM984 608Q1121 608 1209 523T1298 310Q1298 183 1208 92T986 0Q848 0 760 86T672 300Q672 427 762 517T984 608ZM1246 1270L214 -10Q207 -20 182 -30T132 -40Q119 -40 112 -34T103 -22L102 -16L1134 1264Q1164 1290 1214 1290Q1227 1290 1236 1284T1246 1270Z"
/>
<glyph unicode="&amp;" glyph-name="ampersand" horiz-adv-x="1392" d="M764 190Q615 393 448 626Q372 560 372 440Q372 389 388 338T435 243T518 172T636 144Q710 144 764 190ZM624 1218Q572 1218 541 1172T510 1052Q510 947 608 814Q738 882 738 1026Q738 1053
733 1083T715 1145T680 1197T624 1218ZM590 1290Q744 1290 844 1226T944 1058Q944 994 918 939T847 846T757 783T660 740Q687 704 797 554T940 362Q946 369 961 387T985 415T1008 441T1029 468T1045 491T1058 511T1062 524Q1062 544 1042 552T994 560T964 560Q958
569 958 595T966 624L1102 622Q1176 620 1358 628Q1364 625 1364 598T1354 562Q1353 562 1332 561T1292 557T1251 549T1216 532T1162 475T1068 370T996 290L1008 276Q1020 262 1030 250T1058 220T1089 190T1118 169T1144 160Q1157 160 1171 166T1197 181T1221 203T1241
225T1259 248T1272 266Q1285 266 1299 256T1322 230Q1318 219 1291 183T1225 104T1133 27T1038 -6Q987 -6 944 14T877 56T818 120Q684 -8 474 -8Q411 -8 348 14T231 75T145 177T112 312Q112 375 130 431T172 523T236 596T304 652T374 697Q386 704 392 708Q388 714
365 745T333 794T307 842T285 908T278 980Q278 1116 364 1203T590 1290Z" />
<glyph unicode="&apos;" glyph-name="quotesingle" horiz-adv-x="362" d="M212 1422Q267 1422 288 1378Q263 1059 242 940Q225 915 190 902Q175 902 166 914Q161 928 144 971T120 1034T100 1090T82 1151T71 1202T66 1254Q66 1322 108 1372T212 1422Z" />
<glyph unicode="(" glyph-name="parenleft" horiz-adv-x="940" d="M530 342Q530 -121 717 -493Q804 -665 886 -737L862 -792Q694 -702 551 -519Q272 -161 272 342Q272 843 551 1201Q694 1384 862 1474L886 1419Q804 1347 717 1175Q530 803 530 342Z" />
<glyph unicode=")" glyph-name="parenright" horiz-adv-x="940" d="M410 342Q410 803 223 1175Q136 1347 54 1419L78 1474Q246 1384 389 1201Q668 843 668 342Q668 -161 389 -519Q246 -702 78 -792L54 -737Q136 -665 223 -493Q410 -121 410 342Z" />
<glyph unicode="*" glyph-name="asterisk" horiz-adv-x="882" d="M575 1236Q605 1270 648 1272T713 1252Q739 1226 740 1189T711 1114Q684 1083 648 1069T576 1045T517 1012Q503 996 503 986T519 970Q552 955 618 954T731 932Q772 915 788 875T789 804Q773 772
737 760T657 764Q627 777 605 799T571 841T540 882T499 916Q497 917 494 918T482 923T471 922Q465 919 463 906Q459 870 477 807T491 694Q487 650 455 624T389 600Q353 606 329 637T309 712Q314 764 356 820T405 910Q407 930 401 938Q399 943 383 940Q348 932 293
896T189 848Q145 838 111 860T69 916Q64 952 85 984T151 1026Q191 1035 228 1026T302 1004T369 996Q393 998 395 1008Q397 1014 387 1030Q369 1061 317 1101T239 1186Q217 1228 227 1267T267 1322Q296 1339 335 1328T397 1278Q418 1242 420 1203T422 1127T435 1062Q445
1042 455 1040Q465 1040 473 1048Q498 1075 520 1137T575 1236Z" />
<glyph unicode="+" glyph-name="plus" horiz-adv-x="1084" d="M482 948Q496 959 524 964T566 970Q598 970 598 952L596 550H1004Q1012 550 1017 541T1022 522Q1022 469 994 434H598V38Q565 16 504 16Q495 16 489 21T482 32V434H74Q62 434 62 466Q62 520 82 550H480L482
948Z" />
<glyph unicode="," glyph-name="comma" horiz-adv-x="448" d="M238 278Q282 278 326 246Q354 194 354 116Q354 -20 273 -139T80 -314Q65 -310 52 -293T38 -266Q82 -238 131 -178T180 -54Q180 -36 170 -22T146 4T118 31T94 73T84 136Q84 151 91 172T114 218T162
261T238 278Z" />
<glyph unicode="-" glyph-name="hyphen" horiz-adv-x="750" d="M142 534Q558 556 624 558Q638 558 638 540Q638 484 608 420Q567 417 126 398Q112 398 112 420Q112 470 142 534Z" />
<glyph unicode="." glyph-name="period" horiz-adv-x="468" d="M84 132Q84 192 128 235T234 278T340 233T384 126Q384 66 341 22T236 -22Q173 -22 129 23T84 132Z" />
<glyph unicode="/" glyph-name="slash" horiz-adv-x="706" d="M644 1457Q678 1457 682 1441L165 -373Q161 -388 136 -401T65 -415Q52 -415 43 -412T32 -404L29 -401L546 1413Q554 1429 579 1443T644 1457Z" />
<glyph unicode="0" glyph-name="zero" horiz-adv-x="1090" d="M552 1166Q489 1166 446 1090T384 890T364 604Q364 373 419 226T552 78Q599 78 633 123T688 250T717 432T726 656Q726 893 680 1029T552 1166ZM550 1250Q640 1250 719 1208T858 1087T951 888T986 622Q986
451 928 307T769 78T550 -6Q459 -6 379 36T237 157T140 356T104 622Q104 792 165 937T329 1166T550 1250Z" />
<glyph unicode="1" glyph-name="one" horiz-adv-x="1090" d="M446 290V964Q446 1029 438 1049T404 1070Q388 1070 339 1055T260 1024Q249 1030 242 1041T234 1062Q234 1085 238 1086Q335 1127 452 1179T631 1258T696 1286H700Q708 1286 715 1273T724 1248Q706
1190 706 1060V290Q706 142 722 102Q732 75 850 66Q857 55 857 28T850 -8Q714 6 576 6T302 -8Q296 1 296 28T302 66Q420 75 430 102Q446 142 446 290Z" />
<glyph unicode="2" glyph-name="two" horiz-adv-x="1090" d="M978 384Q970 352 951 289T915 172T879 62T858 0H130Q116 14 112 36Q130 56 216 149T331 276T419 387T528 542Q644 726 644 898Q644 994 579 1061T430 1128Q391 1128 355 1116T293 1082T248 1043T216
1006T200 986Q190 986 174 1000T158 1034Q173 1067 204 1106T285 1187T407 1256T558 1284Q708 1284 807 1195T906 948Q906 778 754 600Q544 355 378 204H722Q740 204 756 207T784 215T809 229T830 245T849 266T864 288T878 312T889 335T900 360T910 382Q916 396
938 396Q963 396 978 384Z" />
<glyph unicode="3" glyph-name="three" horiz-adv-x="1090" d="M576 1284Q608 1284 644 1277T723 1252T799 1205T855 1131T878 1028Q878 969 852 917T787 830T717 775T660 744Q684 743 716 735T792 704T872 650T933 563T958 440Q958 338 911 251T787 108T616 20T424
-12Q335 -12 264 10T156 62Q146 74 139 102T132 148Q132 188 160 221T236 254Q245 254 253 253T270 247T285 239T301 227T315 215T329 201T341 188T353 173T364 160Q439 72 504 72Q596 72 644 146T692 356Q692 474 633 559T476 644Q431 644 364 626Q348 646 348
674V692Q386 699 423 709T501 739T573 781T624 840T644 916Q644 1011 594 1073T456 1136Q387 1136 324 1098T236 1032Q226 1035 219 1054T212 1088Q275 1171 370 1227T576 1284Z" />
<glyph unicode="4" glyph-name="four" horiz-adv-x="1090" d="M824 1288Q835 1288 855 1268T876 1232V484H968Q979 484 987 458T996 390Q996 377 991 367T981 352L976 348H876V8Q824 -10 740 -10Q624 -10 624 16V348H116Q96 358 96 398Q226 559 458 851T784 1260Q808
1288 824 1288ZM624 932L268 484H624V932Z" />
<glyph unicode="5" glyph-name="five" horiz-adv-x="1090" d="M554 846Q651 846 743 794T895 652T954 460T908 268T788 118T620 23T430 -12Q341 -12 268 11T160 62Q150 74 143 102T136 148Q136 188 164 221T240 254Q249 254 257 253T274 247T289 239T305 227T319
215T333 201T345 188T357 173T368 160Q443 72 510 72Q602 72 650 146T698 356Q698 442 652 513T544 620T422 656Q308 656 238 628Q230 628 224 642T218 668Q219 671 243 799T295 1076T330 1270H686Q767 1270 870 1292Q871 1292 875 1291T881 1288T886 1285T891
1281T894 1274T896 1264Q896 1242 867 1172T822 1072Q698 1060 522 1056Q458 1054 388 1054L342 820Q450 846 554 846Z" />
<glyph unicode="6" glyph-name="six" horiz-adv-x="1090" d="M406 654Q392 556 392 442Q392 374 400 313T427 195T480 106T560 72Q620 72 659 152T698 364Q698 455 681 525T619 644T506 692Q484 692 455 683T406 654ZM594 810Q670 810 733 789T849 722T930 598T960
414Q960 300 899 201T741 45T538 -12Q429 -12 334 57T185 241T130 484Q130 638 196 777T362 1022Q443 1107 541 1167T718 1254T874 1290Q895 1274 888 1238Q535 1092 430 760Q517 810 594 810Z" />
<glyph unicode="7" glyph-name="seven" horiz-adv-x="1090" d="M780 1274Q811 1274 853 1276T926 1280T960 1282Q974 1282 974 1252Q974 1247 972 1240T964 1220T953 1197T938 1166T920 1130L376 -16Q368 -22 342 -22Q320 -22 287 -10T254 26Q318 117 495 452T808
1072H346Q310 1072 284 1058T239 1015T211 964T188 904Q185 894 164 892Q135 889 116 908Q155 1055 204 1272L780 1274Z" />
<glyph unicode="8" glyph-name="eight" horiz-adv-x="1090" d="M552 72Q623 72 662 118T702 236Q702 280 684 324T643 399T583 465T528 514T480 550Q468 560 462 560Q453 560 452 558Q388 479 388 312Q388 251 403 199T457 110T552 72ZM536 1184Q482 1184 448
1138T414 1024Q414 976 433 931T482 855T537 804T586 772Q601 762 610 762Q616 762 622 768Q664 831 664 972Q664 1021 652 1067T609 1149T536 1184ZM445 1266T540 1266T718 1235T858 1136T914 978Q914 889 850 819T692 708Q689 706 689 703T692 698Q720 682 749
661T819 603T890 527T942 437T964 334Q964 231 901 151T742 29T536 -12Q456 -12 386 4T256 56T161 156T126 306Q126 421 202 501T382 612Q388 615 378 622Q371 628 349 646T314 676T278 709T241 749T209 794T181 846T163 905T156 972Q156 1057 213 1125T357 1230Z"
/>
<glyph unicode="9" glyph-name="nine" horiz-adv-x="1090" d="M684 624Q698 692 698 836Q698 904 690 965T663 1083T610 1172T530 1206Q470 1206 431 1126T392 914Q392 823 409 753T471 634T584 586Q606 586 635 595T684 624ZM202 40Q555 186 660 518Q573 468
496 468Q420 468 357 489T241 556T160 680T130 864Q130 978 191 1077T349 1233T552 1290Q661 1290 756 1221T905 1037T960 794Q960 640 894 501T728 256Q647 171 549 111T372 24T216 -12Q195 4 202 40Z" />
<glyph unicode=":" glyph-name="colon" horiz-adv-x="524" d="M112 716Q112 776 156 819T262 862T368 817T412 710Q412 650 369 606T264 562Q201 562 157 607T112 716ZM112 132Q112 192 156 235T262 278T368 233T412 126Q412 66 369 22T264 -22Q201 -22 157 23T112 132Z" />
<glyph unicode=";" glyph-name="semicolon" horiz-adv-x="508" d="M278 278Q322 278 366 246Q394 194 394 116Q394 -20 313 -139T120 -314Q105 -310 92 -293T78 -266Q122 -238 171 -178T220 -54Q220 -36 210 -22T186 4T158 31T134 73T124 136Q124 151 131 172T154
218T202 261T278 278ZM98 718Q98 778 143 821T250 864Q310 864 351 821T392 718Q392 656 351 609T250 562Q188 562 143 609T98 718Z" />
<glyph unicode="&lt;" glyph-name="less" horiz-adv-x="990" d="M888 90Q888 75 876 23T856 -30Q854 -30 846 -26L96 354Q60 373 60 434Q60 464 96 482L842 856Q850 860 852 860Q864 860 886 746Q887 741 886 737T882 730L880 728L244 418L882 102Q888 100 888 90Z" />
<glyph unicode="=" glyph-name="equal" horiz-adv-x="1118" d="M953 268Q953 268 141 268Q131 272 132 296T147 351T173 386H979Q991 382 991 359T978 305T953 268ZM953 556H141Q131 560 132 584T147 639T173 674H979Q991 670 991 647T978 593T953 556Z" />
<glyph unicode="&gt;" glyph-name="greater" horiz-adv-x="990" d="M102 90Q102 94 104 97Q104 100 106 101L108 102L746 418L110 728Q109 729 108 730T105 736T104 746Q126 860 138 860Q140 860 148 856L894 482Q930 464 930 434Q930 373 894 354L144 -26Q136
-30 134 -30Q126 -30 114 22T102 90Z" />
<glyph unicode="?" glyph-name="question" horiz-adv-x="798" d="M134 132Q134 194 177 236T278 278Q341 278 384 236T428 132Q428 70 387 24T286 -22Q228 -22 181 22T134 132ZM232 1036Q177 1036 143 1076T108 1168Q108 1193 117 1222T138 1260Q198 1294 318
1294Q350 1294 396 1285T501 1250T611 1187T695 1085T730 942Q730 910 723 881T707 829T678 784T645 746T604 712T563 684T519 657T478 632Q467 625 436 607T388 577T348 548T314 512Q310 506 308 498T305 480T304 461T303 442T304 428Q301 418 291 405T274 392Q252
392 228 416Q214 447 201 504T188 616Q188 657 201 692T242 756T291 803T348 844Q560 984 560 1064Q560 1100 531 1130T452 1160Q428 1160 399 1141T347 1098T292 1056T232 1036Z" />
<glyph unicode="@" glyph-name="at" horiz-adv-x="1534" d="M892 1156Q1035 1156 1146 1111T1325 985T1429 802T1464 580Q1464 430 1403 292T1239 70T1022 -14Q941 -14 884 29T826 158Q826 195 834 216Q796 143 714 67T550 -10Q508 -10 476 0T416 36T372 113T356
240Q356 382 449 534T687 786T970 886Q1024 886 1092 878T1188 860L1076 254Q1070 230 1070 204Q1070 202 1070 190T1069 173T1071 156T1075 138T1083 124T1096 114T1116 110Q1154 110 1199 147T1283 243T1349 390T1376 566Q1376 671 1349 760T1265 922T1114 1035T892
1076Q793 1076 699 1046T528 963T388 839T280 686T212 515T188 340Q188 174 265 44T458 -154Q528 -195 612 -208Q612 -220 584 -234T532 -248Q489 -248 442 -230Q296 -176 194 -24T92 330Q92 447 130 566T240 790T409 978T631 1108T892 1156ZM886 778Q806 778 740
705T638 522T602 296Q602 243 624 216T682 188Q746 188 805 286T898 548L938 752Q924 768 915 773T886 778Z" />
<glyph unicode="A" glyph-name="A" horiz-adv-x="1350" d="M188 268L614 1248Q624 1270 648 1297T688 1324Q701 1324 714 1320T730 1310L1140 296Q1154 263 1171 218T1196 152Q1208 124 1232 105T1283 78T1326 69T1354 66Q1361 53 1362 26T1358 -8Q1340 -7 1241
0T1090 8Q1049 8 993 5T872 -2T788 -8Q780 0 780 33T788 66Q817 66 851 75T906 102Q924 117 924 136Q924 144 894 220T834 368L804 440Q796 448 790 448Q752 450 598 450Q460 450 390 448Q381 448 376 438Q326 326 304 270Q260 160 260 134Q260 116 281 102T331
80T382 70T414 66Q422 54 422 27T416 -8Q276 8 200 8Q122 8 -18 -8Q-24 -2 -26 22T-22 64Q0 64 52 85T118 128Q152 184 188 268ZM590 952L420 560Q420 552 424 552Q484 546 590 546Q688 546 750 550Q752 550 754 552Q756 556 756 558V560L590 952Z" />
<glyph unicode="B" glyph-name="B" horiz-adv-x="1238" d="M501 664V218Q501 126 517 102Q534 78 643 78Q680 78 715 92T783 137T835 223T855 352Q855 412 842 464T802 563T724 637T605 664H501ZM501 742H605Q682 742 729 803T777 974Q777 1240 611 1240Q522 1240
511 1216Q501 1192 501 1094V742ZM669 1320Q743 1320 811 1303T940 1250T1036 1151T1073 1004Q1073 948 1048 898T984 815T914 761T857 732Q841 725 847 720Q879 716 919 701T1003 656T1084 589T1145 497T1169 384Q1169 288 1112 203T959 60Q904 27 827 12T696
-5T543 -6H77Q71 3 71 30T77 68Q195 77 205 102Q221 142 221 290V1026Q221 1174 205 1214Q196 1237 77 1246Q70 1257 70 1284T77 1320Q167 1314 363 1314Q401 1314 504 1317T669 1320Z" />
<glyph unicode="C" glyph-name="C" horiz-adv-x="1348" d="M772 1334Q1001 1334 1188 1296Q1188 1295 1222 1152T1256 994Q1256 985 1239 975T1204 964Q1184 964 1176 972Q1169 1001 1156 1031T1113 1102T1042 1173T936 1226T790 1248Q688 1248 611 1203T489 1080T422
908T400 704Q400 583 425 474T501 273T636 128T830 74Q985 74 1078 160Q1116 194 1150 254T1199 353T1218 408Q1261 408 1288 384Q1288 356 1257 222T1206 80Q1119 48 1073 33T940 2T768 -14Q582 -14 425 70T174 307T80 644Q80 786 135 914T283 1134T504 1280T772
1334Z" />
<glyph unicode="D" glyph-name="D" horiz-adv-x="1522" d="M501 1094V282Q501 164 517 124Q526 104 564 91T643 78Q887 78 1003 217T1119 650Q1119 935 980 1087T611 1240Q522 1240 511 1216Q501 1192 501 1094ZM669 1320Q900 1320 1072 1244T1341 1021T1437 672Q1437
535 1397 422T1286 231T1117 98T903 19T655 -6H77Q71 3 71 30T77 68Q195 77 205 102Q221 142 221 290V1026Q221 1174 205 1214Q196 1237 77 1246Q70 1257 70 1284T77 1320Q167 1314 363 1314Q411 1314 520 1316T669 1320Z" />
<glyph unicode="E" glyph-name="E" horiz-adv-x="1204" d="M363 1314Q411 1314 693 1320T1013 1328Q1019 1283 1029 1233T1052 1121T1071 1032Q1061 1022 1025 1022Q999 1022 993 1038Q975 1085 958 1117T916 1179T856 1225T777 1240H611Q522 1240 511 1216Q501
1192 501 1094V736Q501 727 527 721T587 714H693Q781 714 813 740T869 854Q872 870 893 870Q921 870 931 860V476Q923 468 895 468Q870 468 867 484Q841 586 797 606Q763 620 645 620Q501 620 501 592V282Q501 164 517 124Q525 105 564 95T647 84H779Q899 84 965
150Q1023 208 1073 340Q1076 352 1101 352Q1117 352 1137 348T1161 340Q1157 328 1138 274T1110 195T1087 127T1065 53T1053 -4Q155 -4 77 -6Q71 3 71 30T77 68Q195 77 205 102Q221 142 221 290V1026Q221 1174 205 1214Q196 1237 77 1246Q70 1257 70 1284T77 1320Q167
1314 363 1314Z" />
<glyph unicode="F" glyph-name="F" horiz-adv-x="1098" d="M363 1314Q411 1314 693 1320T1013 1328Q1019 1283 1029 1233T1052 1121T1071 1032Q1061 1022 1025 1022Q999 1022 993 1038Q975 1085 958 1117T916 1179T856 1225T777 1240H611Q522 1240 511 1216Q501
1192 501 1094V728Q501 719 527 713T587 706H693Q781 706 813 732T869 846Q872 862 893 862Q921 862 931 852V468Q923 460 895 460Q870 460 867 476Q841 578 797 598Q763 612 645 612Q501 612 501 584V290Q501 142 517 102Q527 76 663 66Q670 55 670 28T663 -8Q526
6 359 6Q214 6 77 -8Q71 1 71 28T77 66Q195 75 205 102Q221 142 221 290V1026Q221 1174 205 1214Q196 1237 77 1246Q70 1257 70 1284T77 1320Q167 1314 363 1314Z" />
<glyph unicode="G" glyph-name="G" horiz-adv-x="1444" d="M998 366Q998 431 988 468Q982 491 952 504T900 519T856 522Q848 522 848 555T854 596Q888 595 950 592T1064 586T1160 584Q1197 584 1238 586T1330 591T1406 596Q1410 584 1410 566T1409 535T1404 522Q1389
522 1351 514T1298 496Q1289 490 1282 464T1274 410V196Q1274 186 1280 164T1286 138Q1286 113 1216 86Q1132 54 1081 37T942 3T768 -14Q581 -14 424 71T173 307T80 644Q80 828 173 987T426 1240T772 1334Q1001 1334 1188 1296Q1188 1295 1222 1152T1256 994Q1256
985 1239 975T1204 964Q1184 964 1176 972Q1168 1002 1156 1031T1114 1102T1045 1174T940 1226T794 1248Q708 1248 640 1217T527 1134T454 1010T413 860T400 694Q400 575 427 465T505 267T639 125T824 72Q908 72 980 104Q998 113 998 134V366Z" />
<glyph unicode="H" glyph-name="H" horiz-adv-x="1482" d="M363 1310Q508 1310 645 1324Q651 1315 651 1288T645 1250Q527 1241 517 1214Q501 1174 501 1026V742L505 736Q739 730 747 730Q765 730 981 736Q985 740 985 744L983 1026Q983 1174 967 1214Q957 1241
839 1250Q832 1261 832 1288T839 1324Q976 1310 1125 1310Q1270 1310 1407 1324Q1413 1315 1413 1288T1407 1250Q1289 1241 1279 1214Q1263 1174 1263 1026V290Q1263 142 1279 102Q1289 75 1407 66Q1414 55 1414 28T1407 -8Q1270 6 1121 6Q976 6 839 -8Q833 1 833
28T839 66Q957 75 967 102Q983 142 983 290V620L979 630Q831 634 747 634Q515 634 503 626L501 618V290Q501 142 517 102Q527 75 645 66Q652 55 652 28T645 -8Q508 6 359 6Q214 6 77 -8Q71 1 71 28T77 66Q195 75 205 102Q221 142 221 290V1026Q221 1174 205 1214Q195
1241 77 1250Q70 1261 70 1288T77 1324Q214 1310 363 1310Z" />
<glyph unicode="I" glyph-name="I" horiz-adv-x="720" d="M363 1310Q508 1310 645 1324Q651 1315 651 1288T645 1250Q527 1241 517 1214Q501 1174 501 1026V290Q501 142 517 102Q527 75 645 66Q652 55 652 28T645 -8Q508 6 359 6Q214 6 77 -8Q71 1 71 28T77 66Q195
75 205 102Q221 142 221 290V1026Q221 1174 205 1214Q195 1241 77 1250Q70 1261 70 1288T77 1324Q214 1310 363 1310Z" />
<glyph unicode="J" glyph-name="J" horiz-adv-x="690" d="M350 1310Q496 1310 632 1324Q638 1315 638 1288T632 1250Q514 1241 504 1214Q488 1174 488 1026V286Q488 -54 330 -245T-104 -436Q-131 -436 -167 -424T-218 -400Q-219 -398 -224 -391T-230 -381T-236
-370T-242 -358T-246 -346T-249 -331T-250 -314Q-250 -262 -214 -221T-130 -180Q-82 -180 -16 -246Q-14 -248 -7 -256T3 -266T12 -275T22 -284T32 -292T41 -300T50 -305T60 -310T68 -313T78 -314Q101 -314 119 -304T151 -269T174 -218T190 -146T200 -62T205 39T207
148T208 270V1026Q208 1174 192 1214Q182 1241 64 1250Q57 1261 57 1288T64 1324Q200 1310 350 1310Z" />
<glyph unicode="K" glyph-name="K" horiz-adv-x="1438" d="M363 1310Q508 1310 645 1324Q651 1315 651 1288T645 1250Q527 1241 517 1214Q501 1174 501 1026V674Q642 786 709 856Q731 878 772 919T830 978T874 1025T923 1081T969 1140Q989 1166 989 1206Q989 1233
952 1242T877 1252Q870 1263 869 1287T873 1324Q896 1323 952 1319T1054 1313T1133 1310Q1252 1310 1381 1324Q1386 1314 1385 1289T1377 1254Q1222 1237 1151 1166Q925 936 775 778Q760 761 769 746L1129 260Q1171 207 1219 168T1305 110T1380 81T1434 68T1461
66Q1467 53 1466 26T1461 -8Q1345 -16 1199 -16Q1094 -16 1016 28T893 134Q870 166 803 255T655 452T541 604Q533 612 521 612Q507 612 501 600V290Q501 142 517 102Q527 75 645 66Q652 55 652 28T645 -8Q508 6 359 6Q214 6 77 -8Q71 1 71 28T77 66Q195 75 205
102Q221 142 221 290V1026Q221 1174 205 1214Q195 1241 77 1250Q70 1261 70 1288T77 1324Q214 1310 363 1310Z" />
<glyph unicode="L" glyph-name="L" horiz-adv-x="1158" d="M501 282Q501 164 517 124Q525 105 564 95T647 84H779Q899 84 965 150Q1023 208 1073 340Q1076 352 1101 352Q1117 352 1137 348T1161 340Q1157 328 1138 274T1110 195T1087 127T1065 53T1053 -4Q631
-4 362 -5Q104 -5 77 -6Q71 3 71 30T77 68Q195 77 205 102Q221 142 221 290V1026Q221 1174 205 1214Q195 1241 77 1250Q70 1261 70 1288T77 1324Q214 1310 363 1310Q508 1310 645 1324Q651 1315 651 1288T645 1250Q527 1241 517 1214Q499 1170 501 1026V282Z" />
<glyph unicode="M" glyph-name="M" horiz-adv-x="1814" d="M342 1312Q381 1312 455 1317T552 1324Q699 999 930 476Q936 472 938 472Q939 472 942 477T946 484Q1096 852 1182 1092Q1196 1130 1212 1186T1238 1279L1248 1316Q1302 1310 1464 1310Q1503 1310 1588
1316T1698 1324Q1705 1317 1709 1289T1706 1248Q1688 1248 1652 1242T1602 1226Q1585 1214 1579 1198T1574 1144Q1576 1101 1586 776T1604 304Q1604 300 1605 279T1606 253T1608 229T1610 205T1612 183T1615 160T1619 140T1624 119T1630 102Q1638 84 1684 75T1756
66Q1762 52 1763 30T1760 -8Q1743 -7 1642 0T1488 8Q1434 8 1314 1T1174 -8Q1168 -2 1167 26T1170 66Q1200 66 1249 76T1310 104Q1326 130 1326 174Q1326 260 1324 296L1304 994Q1304 1046 1290 1046Q1286 1046 1280 1032L928 80Q921 60 894 28T842 -4Q836 -4 824
0L378 1046Q373 887 369 743T361 503T352 268Q351 237 354 189T360 130Q368 103 437 85T534 66Q539 55 540 32T538 -8Q515 -7 428 0T290 8Q238 8 157 1T40 -8Q34 2 34 25T38 64Q71 64 132 83T208 136Q213 149 221 215T232 312Q237 415 244 603T258 964T266 1162Q266
1192 256 1206Q245 1221 200 1235T126 1250Q118 1263 120 1291T126 1324Q159 1323 224 1318T342 1312Z" />
<glyph unicode="N" glyph-name="N" horiz-adv-x="1520" d="M301 1310Q407 1310 519 1324Q546 1269 621 1167T771 972T972 728T1161 496Q1165 510 1165 578V952Q1165 1019 1159 1103T1143 1208Q1133 1231 1076 1241T981 1252Q979 1252 977 1266T975 1299T981 1326Q1017
1324 1095 1317T1225 1310T1365 1317T1477 1326Q1481 1314 1481 1289T1473 1250Q1454 1250 1425 1248T1355 1235T1307 1204Q1300 1184 1294 1100T1287 958V278Q1287 206 1295 -2Q1287 -10 1245 -10Q1218 -10 1183 36L369 1038V314Q369 262 376 202T391 120Q400
96 462 82T555 68Q563 55 563 30T559 -8Q536 -7 447 0T307 8T178 1T63 -8Q58 0 58 18T59 51T63 66Q95 66 154 80T223 118Q233 140 240 200T247 320V1028Q247 1155 211 1208Q199 1225 152 1237T79 1250Q71 1250 70 1283T75 1324Q93 1323 136 1319T219 1313T301 1310Z"
/>
<glyph unicode="O" glyph-name="O" horiz-adv-x="1520" d="M712 1248Q644 1248 590 1217T500 1134T442 1014T410 874T400 726Q400 647 409 571T438 419T489 281T565 170T669 94T802 66Q871 66 926 97T1017 178T1076 297T1110 437T1120 584Q1120 679 1107 770T1062
949T985 1102T869 1208T712 1248ZM630 1334T760 1334T1014 1280T1232 1136T1383 920T1440 656T1383 393T1233 177T1015 34T760 -20T506 33T288 177T137 393T80 656T137 919T287 1136T505 1280Z" />
<glyph unicode="P" glyph-name="P" horiz-adv-x="1170" d="M1131 964Q1131 849 1072 758T923 621T729 574Q681 574 644 589T591 620T576 670Q576 684 583 684Q610 676 665 676Q739 676 786 748T833 936Q833 1059 771 1149T611 1240Q522 1240 511 1216Q501 1192
501 1094V290Q501 142 517 102Q527 75 645 66Q652 55 652 28T645 -8Q508 6 359 6Q214 6 77 -8Q71 1 71 28T77 66Q195 75 205 102Q221 142 221 290V1026Q221 1174 205 1214Q196 1237 77 1246Q70 1257 70 1284T77 1320Q167 1314 363 1314Q401 1314 504 1317T671 1320Q798
1320 901 1280T1067 1157T1131 964Z" />
<glyph unicode="Q" glyph-name="Q" horiz-adv-x="1520" d="M630 1334T760 1334T1014 1280T1232 1136T1383 920T1440 656Q1440 437 1304 260T964 14Q1011 -9 1079 -47T1182 -102T1277 -133T1410 -148Q1445 -148 1477 -144T1528 -136T1552 -132Q1562 -132 1576 -139T1598
-158L1602 -168Q1513 -215 1396 -250T1192 -286Q1131 -286 1069 -263T950 -204T841 -130T724 -55T602 0Q381 58 231 241T80 656Q80 793 137 919T287 1136T505 1280ZM712 1248Q644 1248 590 1217T500 1134T442 1014T410 874T400 726Q400 647 409 571T438 419T489
281T565 170T669 94T802 66Q871 66 926 97T1017 178T1076 297T1110 437T1120 584Q1120 679 1107 770T1062 949T985 1102T869 1208T712 1248Z" />
<glyph unicode="R" glyph-name="R" horiz-adv-x="1386" d="M671 1320Q866 1320 987 1225T1109 956Q1109 898 1081 841T1009 741T921 670T837 632Q902 545 974 452Q1046 360 1087 310L1127 260Q1169 207 1217 168T1303 110T1378 81T1432 68T1459 66Q1465 53 1464
26T1459 -8Q1343 -16 1197 -16Q1092 -16 1014 28T891 134L567 568Q547 598 531 598H501V290Q501 142 517 102Q527 75 645 66Q652 55 652 28T645 -8Q508 6 359 6Q214 6 77 -8Q71 1 71 28T77 66Q195 75 205 102Q221 142 221 290V1026Q221 1174 205 1214Q196 1237
77 1246Q70 1257 70 1284T77 1320Q167 1314 363 1314Q401 1314 504 1317T671 1320ZM811 936Q811 1001 803 1051T773 1146T711 1215T611 1240Q522 1240 511 1216Q501 1192 501 1094V676H593Q681 676 746 750T811 936Z" />
<glyph unicode="S" glyph-name="S" horiz-adv-x="1042" d="M534 1340Q576 1340 622 1334T697 1322T785 1303T870 1284Q882 1158 892 952Q883 940 870 940Q814 940 810 954Q804 999 783 1049T730 1146T648 1225T544 1256Q475 1256 425 1215T374 1082Q374 1046 394
1008T439 941T511 874T585 816T664 762Q672 757 704 736T746 708T785 680T825 648T860 613T893 573T918 528T940 476T952 418T958 350Q958 244 895 158T732 26T522 -20Q365 -20 142 32Q128 92 113 206T94 372Q100 380 121 390T152 400Q175 400 178 384Q185 341
211 288T278 184T378 99T502 64Q586 64 641 111T696 258Q696 284 687 310T665 358T628 406T587 448T537 489T490 524T441 557T400 584Q277 666 236 704Q117 811 109 954Q108 966 108 978Q108 1077 171 1162T333 1293T534 1340Z" />
<glyph unicode="T" glyph-name="T" horiz-adv-x="1268" d="M966 1314Q1029 1314 1072 1323T1139 1342T1174 1352T1198 1346L1252 978Q1248 974 1228 969T1194 964Q1176 964 1174 974Q1159 1074 1097 1150T960 1226H774V290Q774 142 790 102Q800 75 918 66Q925
55 925 28T918 -8Q782 6 632 6Q486 6 350 -8Q344 1 344 28T350 66Q468 75 478 102Q494 142 494 290V1226H308Q233 1226 171 1150T94 974Q92 964 74 964Q60 964 40 969T16 978L70 1346Q82 1352 94 1352T128 1343T195 1324T302 1314H966Z" />
<glyph unicode="U" glyph-name="U" horiz-adv-x="1460" d="M331 1310Q476 1310 613 1324Q619 1315 619 1288T613 1250Q495 1241 485 1214Q469 1174 469 1026V660Q469 541 478 466T519 318Q602 126 823 126Q885 126 941 154T1045 240T1119 394T1147 618V958Q1147
1025 1139 1099T1119 1202Q1103 1240 969 1250Q962 1261 962 1288T969 1324Q1134 1310 1219 1310Q1270 1310 1350 1316T1453 1324Q1459 1315 1459 1288T1453 1250Q1452 1250 1442 1250T1425 1248T1405 1246T1383 1243T1362 1239T1340 1233T1322 1225T1308 1215T1299
1202Q1287 1173 1279 1100T1271 960V572Q1271 453 1242 355T1161 188T1040 73T891 4T723 -18Q592 -18 482 26T301 158Q189 299 189 602V1026Q189 1174 173 1214Q163 1241 45 1250Q38 1261 38 1288T45 1324Q182 1310 331 1310Z" />
<glyph unicode="V" glyph-name="V" horiz-adv-x="1368" d="M281 1310Q426 1310 563 1324Q569 1315 569 1288T563 1250Q562 1250 552 1250T537 1249T520 1247T501 1243T484 1239T467 1232T454 1223T444 1211T441 1196Q441 1158 489 1046L787 372Q1031 986 1051
1042Q1053 1047 1062 1073T1074 1110T1084 1141T1092 1175T1095 1202Q1095 1238 935 1250Q928 1261 928 1288T935 1324Q1100 1310 1173 1310Q1224 1310 1297 1316T1397 1324Q1403 1315 1403 1288T1397 1250Q1395 1250 1383 1249T1362 1248T1339 1245T1314 1241T1291
1235T1271 1226T1257 1214Q1230 1178 1175 1048Q1081 819 947 502T761 60Q749 33 716 6T665 -22Q657 -22 653 -19T644 -7T637 6L201 1020Q158 1125 131 1184Q120 1208 90 1223T38 1243T-5 1250Q-12 1261 -12 1288T-5 1324Q132 1310 281 1310Z" />
<glyph unicode="W" glyph-name="W" horiz-adv-x="1902" d="M282 1310Q428 1310 564 1324Q570 1315 570 1288T564 1250Q563 1250 553 1250T538 1249T521 1247T502 1243T485 1239T468 1232T455 1223T445 1211T442 1196Q442 1187 444 1175T453 1146T463 1116T477
1080T490 1046L686 502Q904 1120 952 1250Q963 1280 980 1302T1014 1324Q1026 1324 1038 1292L1380 428Q1556 978 1576 1042Q1579 1051 1586 1073T1597 1109T1606 1141T1613 1175T1616 1202Q1616 1238 1460 1250Q1453 1261 1453 1288T1460 1324Q1624 1310 1698
1310Q1749 1310 1822 1316T1922 1324Q1928 1315 1928 1288T1922 1250Q1920 1250 1908 1249T1887 1248T1864 1245T1839 1241T1816 1235T1796 1226T1782 1214Q1731 1146 1700 1048Q1657 917 1372 80Q1358 41 1334 10T1292 -22T1254 6L924 836Q768 375 670 88Q659
58 638 18T600 -22Q582 -22 562 6L202 1020Q191 1053 132 1184Q121 1208 91 1223T39 1243T-4 1250Q-12 1261 -12 1287T-4 1324Q132 1310 282 1310Z" />
<glyph unicode="X" glyph-name="X" horiz-adv-x="1420" d="M352 1312Q400 1312 640 1324Q644 1315 644 1283T636 1250Q606 1250 569 1239T530 1208Q530 1188 546 1164L768 828Q793 861 862 944T973 1083T1028 1168Q1034 1180 1034 1188Q1034 1213 987 1231T886
1250Q878 1250 878 1283T884 1324Q1006 1310 1150 1310Q1288 1310 1390 1324Q1395 1314 1395 1282T1388 1250Q1375 1250 1357 1248T1304 1236T1232 1203T1164 1144L822 738Q950 545 1076 361T1224 152Q1262 107 1323 87T1422 66Q1428 52 1428 29T1422 -8Q1182 4
1102 4Q1036 4 920 -1T786 -8Q779 0 780 33T790 66Q816 66 859 82T902 122Q902 135 896 144L630 546Q400 242 354 166Q338 139 338 132Q338 100 392 83T504 66Q511 56 513 32T510 -8Q312 4 246 4Q200 4 157 2T64 -3T-10 -8Q-18 1 -18 28T-10 66Q3 66 23 68T79 78T151
107T208 158L564 644L284 1074Q278 1083 263 1107T238 1144T217 1174T194 1203T176 1220Q157 1233 111 1241T40 1250Q32 1250 32 1283T40 1324Q334 1312 352 1312Z" />
<glyph unicode="Y" glyph-name="Y" horiz-adv-x="1248" d="M467 290V568Q467 581 455 608Q432 656 370 772Q308 890 256 982L205 1074Q172 1136 143 1184Q124 1216 82 1231T7 1250Q0 1261 0 1288T7 1324Q144 1310 293 1310Q438 1310 575 1324Q581 1315 581 1288T575
1250Q574 1250 564 1250T549 1249T532 1247T513 1243T496 1239T479 1232T466 1223T456 1211T453 1196T467 1164L707 722Q714 715 792 853T959 1156Q969 1176 969 1202Q969 1239 821 1250Q814 1261 814 1288T821 1324Q986 1310 1047 1310Q1098 1310 1171 1316T1271
1324Q1277 1315 1277 1288T1271 1250L1258 1249Q1246 1248 1241 1248T1221 1246T1198 1242T1177 1236T1155 1227T1137 1215T1123 1200Q1069 1118 932 895T757 596Q747 576 747 558V290Q745 146 763 102Q773 75 891 66Q898 55 898 28T891 -8Q754 6 605 6Q460 6 323
-8Q317 1 317 28T323 66Q441 75 451 102Q454 109 456 116T459 132T462 149T464 169T465 189T466 212T466 236T467 263T467 290Z" />
<glyph unicode="Z" glyph-name="Z" horiz-adv-x="1280" d="M467 1220Q436 1220 409 1216T360 1205T320 1185T287 1161T260 1130T238 1098T220 1061T205 1025T191 986T177 948Q173 936 151 936Q103 936 93 946Q100 984 115 1060T143 1201T165 1324Q186 1319 288
1315T427 1310L707 1312Q928 1315 1171 1332Q1177 1331 1184 1307T1191 1266Q1188 1259 994 966Q800 674 606 384L413 94H845Q965 94 1035 164Q1068 197 1092 236T1141 340Q1144 352 1169 352Q1185 352 1205 348T1229 340Q1220 309 1176 181T1121 2L93 0Q81 0 67
9T46 29T41 44L833 1220H467Z" />
<glyph unicode="[" glyph-name="bracketleft" horiz-adv-x="740" d="M258 1460Q504 1460 668 1492Q676 1492 679 1481Q680 1477 680 1474Q680 1460 662 1424Q661 1422 660 1422Q621 1402 475 1376Q447 1371 434 1368V-692Q449 -695 488 -702Q607 -722 660 -746Q671
-751 677 -776Q680 -788 680 -798Q679 -813 668 -816Q502 -784 258 -784Q227 -782 221 -748Q220 -743 220 -738V1414Q220 1446 249 1458Q254 1460 258 1460Z" />
<glyph unicode="\" glyph-name="backslash" horiz-adv-x="706" d="M62 1457Q102 1457 127 1443T160 1413L677 -401L674 -404Q672 -408 663 -411T641 -415Q595 -415 570 -402T541 -373L24 1441Q28 1457 62 1457Z" />
<glyph unicode="]" glyph-name="bracketright" horiz-adv-x="740" d="M482 1460Q486 1460 491 1458Q520 1446 520 1414V-738Q520 -743 519 -748Q513 -782 482 -784Q238 -784 72 -816Q61 -813 60 -798Q60 -788 63 -776Q69 -751 80 -746Q133 -722 252 -702Q291 -695
306 -692V1368Q293 1371 265 1376Q119 1402 80 1422Q79 1422 78 1424Q60 1460 60 1474Q60 1477 61 1481Q64 1492 72 1492Q236 1460 482 1460Z" />
<glyph unicode="^" glyph-name="asciicircum" horiz-adv-x="782" d="M372 1338Q396 1338 412 1310Q442 1257 493 1166T580 1012T666 874Q666 859 654 849T628 838Q576 886 512 954Q448 1024 410 1068L372 1112Q232 946 116 838Q102 838 89 848T76 874Q115 934
151 993T204 1082T269 1196T334 1310Q350 1338 372 1338Z" />
<glyph unicode="_" glyph-name="underscore" horiz-adv-x="986" d="M16 -66Q26 26 46 26H944Q952 26 952 16Q952 -1 932 -74Q930 -79 927 -82T922 -86H920H30Q16 -86 16 -66Z" />
<glyph unicode="`" glyph-name="grave" horiz-adv-x="498" d="M88 1316Q88 1334 111 1354T180 1374Q230 1374 248 1356Q282 1317 327 1251T403 1135T434 1080Q434 1071 422 1058T400 1044Q388 1044 313 1095T163 1213T88 1316Z" />
<glyph unicode="a" glyph-name="a" horiz-adv-x="944" d="M454 124Q488 124 512 139T536 166V446Q530 443 479 420T404 382Q328 333 332 248Q333 189 371 157T454 124ZM496 898Q622 898 709 812T796 592V218Q796 179 809 158T844 136Q854 136 864 139T880 144Q886
148 894 152L902 156Q916 149 916 122Q916 105 908 92Q887 73 861 53T787 10T702 -12Q654 -12 609 19T550 88Q525 66 448 25T324 -16Q214 -16 138 59T62 228Q62 284 93 329T166 388Q199 399 267 424T417 482T536 528V570V622Q536 700 503 761T418 822Q396 822 379
813T350 790T330 751T315 707T302 654Q283 566 190 566Q148 566 117 593T86 662Q86 695 114 744Q152 782 267 840T496 898Z" />
<glyph unicode="b" glyph-name="b" horiz-adv-x="1084" d="M487 -16Q428 -16 341 7T235 30Q194 30 161 16Q155 16 134 36T113 66Q137 128 137 304V1116Q137 1178 123 1212Q116 1228 73 1238T3 1248Q-1 1248 -3 1262T-4 1292T3 1312Q66 1318 128 1328T234 1348T314
1368T368 1384T389 1390Q397 1389 407 1377T419 1356Q397 1266 397 1154V830Q397 824 397 821T398 810T402 802T409 804Q446 834 504 866T607 898Q782 898 902 777T1023 472Q1023 379 992 299T909 162T788 64T643 4T487 -16ZM507 750Q443 750 403 706Q397 700 397
688V196Q397 143 432 108T529 72T638 121T711 243T735 392Q735 584 673 667T507 750Z" />
<glyph unicode="c" glyph-name="c" horiz-adv-x="894" d="M826 764Q826 717 794 679T710 640Q695 640 681 645T653 662T631 682T609 707T590 730Q535 792 454 792Q412 792 379 748T330 642T314 516Q314 416 340 342T410 227T502 169T602 150Q735 150 826 250Q836
247 843 236T850 214Q850 185 844 176Q828 151 798 122T722 59T613 4T482 -18Q369 -18 274 31T121 176T62 400Q62 490 105 580T219 739T386 852T584 896Q658 896 711 885T786 860Q826 816 826 764Z" />
<glyph unicode="d" glyph-name="d" horiz-adv-x="1094" d="M588 892Q636 892 668 888Q678 888 678 934Q678 934 678 1116Q678 1178 664 1212Q657 1228 614 1238T544 1248Q540 1248 538 1262T537 1292T544 1312Q607 1318 669 1328T775 1348T855 1368T909 1384T930
1390Q938 1389 948 1377T960 1356Q938 1266 938 1154V216Q938 160 956 140T1046 120Q1052 114 1052 94T1040 56Q989 51 908 34T767 1T696 -14Q689 -14 684 -1T678 34V66Q678 80 672 76Q538 -16 426 -16Q280 -16 172 105T64 400Q64 497 101 581T196 720T325 816T463
874T588 892ZM522 790Q461 790 421 746T364 637T348 486Q348 319 403 216T550 112Q590 112 634 138T678 186V700Q678 729 630 759T522 790Z" />
<glyph unicode="e" glyph-name="e" horiz-adv-x="920" d="M326 564Q339 563 443 569T584 580Q610 582 610 612Q610 692 580 752T488 812Q447 812 414 784T362 713T335 632T326 564ZM324 484Q324 404 345 342T396 245T467 188T540 158T604 150Q737 150 828 250Q838
247 845 236T852 214Q852 185 846 176Q830 151 800 122T724 59T615 4T484 -18Q371 -18 276 31T123 176T64 400Q64 524 126 638T292 823T508 894Q583 894 644 874T744 821T809 748T847 668T858 592Q858 559 842 534T804 508Q624 492 324 484Z" />
<glyph unicode="f" glyph-name="f" horiz-adv-x="710" d="M612 1396Q808 1396 818 1284Q822 1237 790 1188Q762 1146 710 1146Q660 1146 612 1198Q600 1210 584 1222Q547 1252 504 1252Q480 1252 462 1195T444 1068Q444 950 452 826H686Q698 826 698 800Q698 787
683 765T652 732H458V290Q458 145 474 102Q484 75 602 66Q609 55 609 28T602 -8Q466 6 328 6T54 -8Q48 1 48 28T54 66Q172 75 182 102Q198 142 198 290V732H56Q46 736 46 758Q72 794 110 826H198V886Q198 984 241 1080T348 1244T483 1354T612 1396Z" />
<glyph unicode="g" glyph-name="g" horiz-adv-x="956" d="M430 812Q393 812 370 795T336 745T323 684T320 614Q320 553 333 501T379 409T462 370Q484 370 500 377T527 393T545 422T556 453T562 492T564 530T564 570Q564 631 553 682T511 773T430 812ZM520 -28H300Q268
-65 268 -116Q268 -213 334 -268T508 -324Q576 -324 625 -308T698 -266T733 -213T744 -158Q744 -97 682 -63T520 -28ZM652 192Q717 188 770 163T854 104T901 34T918 -28Q918 -145 841 -240T641 -385T382 -436Q235 -436 142 -372T48 -206Q48 -151 100 -98T218 -12Q168
1 133 60T98 184Q98 209 149 252T264 330Q178 365 128 434T78 588Q78 713 182 799T440 886Q580 886 654 836Q660 830 666 830L916 854Q938 847 938 832Q938 820 920 781T888 732Q850 735 776 744Q764 744 764 738Q806 680 806 598Q806 472 702 384T444 296Q393
296 340 306Q292 267 292 244Q292 222 321 208T388 194Q617 194 652 192Z" />
<glyph unicode="h" glyph-name="h" horiz-adv-x="1166" d="M735 892Q803 892 851 873T929 818T977 722T1000 592T1007 420V290Q1007 142 1023 102Q1033 75 1151 66Q1158 55 1158 28T1151 -8Q1014 6 877 6Q764 6 627 -8Q621 1 621 28T627 66Q720 73 731 102Q747
142 747 290V448Q747 730 613 730Q556 730 497 690T437 618V290Q437 142 453 102Q464 74 567 66Q574 55 574 28T567 -8Q430 6 307 6Q170 6 33 -8Q27 1 27 28T33 66Q151 75 161 102Q177 142 177 290V1116Q177 1178 163 1212Q156 1228 113 1238T43 1248Q39 1248 37
1262T36 1292T43 1312Q106 1318 168 1328T274 1348T354 1368T408 1384T429 1390Q437 1389 447 1377T459 1356Q437 1232 437 1152V744Q437 734 439 732Q443 732 453 742Q499 795 584 843T735 892Z" />
<glyph unicode="i" glyph-name="i" horiz-adv-x="630" d="M463 618V290Q463 142 479 102Q490 74 593 66Q600 55 600 28T593 -8Q456 6 333 6Q196 6 59 -8Q53 1 53 28T59 66Q177 75 187 102Q203 142 203 290V520Q203 650 185 684Q175 703 129 713T59 724Q54 727
54 756T61 786Q165 794 274 826T451 892Q461 889 473 876T485 858Q481 846 474 806T465 744Q463 700 463 618ZM169 1172T169 1232T211 1334T313 1376T416 1334T459 1232T416 1130T313 1088T211 1130Z" />
<glyph unicode="j" glyph-name="j" horiz-adv-x="572" d="M178 128V520Q178 650 160 684Q150 703 104 713T34 724Q29 727 29 756T36 786Q140 794 249 826T426 892Q436 889 448 876T460 858Q456 846 449 806T440 744Q438 700 438 618V240Q438 -64 342 -204Q277
-299 169 -367T4 -436Q-24 -420 -24 -402Q-24 -390 -22 -388Q-12 -383 2 -373T51 -323T110 -231T157 -84T178 128ZM144 1170T144 1232T187 1337T292 1380T397 1337T440 1232T397 1127T292 1084T187 1127Z" />
<glyph unicode="k" glyph-name="k" horiz-adv-x="1180" d="M437 290Q437 142 453 102Q463 75 581 66Q588 55 588 28T581 -8Q444 6 307 6T33 -8Q27 1 27 28T33 66Q151 75 161 102Q177 142 177 290V1116Q177 1178 163 1212Q156 1228 113 1238T43 1248Q39 1248 37
1262T36 1292T43 1312Q106 1318 168 1328T274 1348T354 1368T408 1384T429 1390Q437 1389 447 1377T459 1356Q437 1232 437 1152L435 472Q488 491 585 574Q688 662 724 702T761 766Q761 782 715 795T633 810Q628 823 629 849T637 878Q815 870 899 870Q931 870 964
871T1043 876T1121 880Q1130 865 1127 840T1115 810Q989 798 917 748Q899 735 862 702T762 611T653 512Q735 416 819 325T937 196Q976 152 1010 126T1075 88T1125 75T1175 72Q1182 51 1181 35T1175 12Q1150 3 1090 -4T973 -12Q888 -12 817 20T699 106Q561 254 463
376Q459 381 453 387T442 398L437 402V290Z" />
<glyph unicode="l" glyph-name="l" horiz-adv-x="612" d="M177 1116Q177 1178 163 1212Q156 1228 113 1238T43 1248Q39 1248 37 1262T36 1292T43 1312Q106 1318 168 1328T274 1348T354 1368T408 1384T429 1390Q437 1389 447 1377T459 1356Q437 1232 437 1152V290Q437
142 453 102Q463 75 581 66Q588 55 588 28T581 -8Q444 6 307 6T33 -8Q27 1 27 28T33 66Q151 75 161 102Q177 142 177 290V1116Z" />
<glyph unicode="m" glyph-name="m" horiz-adv-x="1766" d="M761 892Q858 892 914 854T1007 720Q1075 787 1171 839T1335 892Q1403 892 1451 873T1529 818T1577 722T1600 592T1607 420V290Q1607 142 1623 102Q1633 75 1751 66Q1758 55 1758 28T1751 -8Q1614 6 1477
6Q1364 6 1227 -8Q1221 1 1221 28T1227 66Q1320 73 1331 102Q1347 142 1347 290V448Q1347 730 1213 730Q1155 730 1090 691T1025 620V608Q1033 496 1033 420V290Q1033 142 1049 102Q1059 75 1173 66Q1180 55 1180 28T1173 -8Q1036 6 903 6Q786 6 649 -8Q643 1 643
28T649 66Q746 73 757 102Q773 142 773 290V448Q773 730 639 730Q582 730 523 690T463 618V290Q463 142 479 102Q490 74 593 66Q600 55 600 28T593 -8Q456 6 333 6Q196 6 59 -8Q53 1 53 28T59 66Q177 75 187 102Q203 142 203 290V520Q203 650 185 684Q175 703 129
713T59 724Q54 727 54 756T61 786Q165 794 274 826T451 892Q461 889 473 876T485 858Q481 847 472 797T465 744Q465 734 467 732Q471 732 481 742Q528 795 612 843T761 892Z" />
<glyph unicode="n" glyph-name="n" horiz-adv-x="1192" d="M761 892Q829 892 877 873T955 818T1003 722T1026 592T1033 420V290Q1033 142 1049 102Q1059 75 1177 66Q1184 55 1184 28T1177 -8Q1040 6 903 6Q790 6 653 -8Q647 1 647 28T653 66Q746 73 757 102Q773
142 773 290V448Q773 730 639 730Q582 730 523 690T463 618V290Q463 142 479 102Q490 74 593 66Q600 55 600 28T593 -8Q456 6 333 6Q196 6 59 -8Q53 1 53 28T59 66Q177 75 187 102Q203 142 203 290V520Q203 650 185 684Q175 703 129 713T59 724Q54 727 54 756T61
786Q165 794 274 826T451 892Q460 892 472 879T485 858Q483 851 478 823T469 770T465 744Q465 734 467 732Q471 732 481 742Q528 795 612 843T761 892Z" />
<glyph unicode="o" glyph-name="o" horiz-adv-x="1064" d="M508 812Q456 812 422 782T373 696T353 590T348 474Q348 379 368 291T436 136T554 70Q596 70 627 91T674 145T701 225T713 313T716 404Q716 500 696 589T626 745T508 812ZM530 894Q736 894 868 768T1000
450Q1000 325 939 219T771 49T534 -14Q328 -14 196 114T64 434Q64 624 199 759T530 894Z" />
<glyph unicode="p" glyph-name="p" horiz-adv-x="1106" d="M651 896Q768 896 859 835T996 677T1043 468Q1043 358 998 264T880 111T723 18T553 -16Q528 -16 501 -12T457 -3T437 2Q431 2 431 -30V-138Q431 -286 447 -326Q457 -353 575 -362Q582 -373 582 -400T575
-436Q438 -422 301 -422T27 -436Q21 -427 21 -400T27 -362Q145 -353 155 -326Q171 -286 171 -138V520Q171 650 153 684Q143 703 97 713T27 724Q22 727 22 756T29 786Q133 794 242 826T419 892Q429 889 441 876T453 858Q453 857 447 844T438 817T435 790T440 776Q441
776 443 778Q490 828 548 862T651 896ZM541 750Q507 750 480 738T442 713T431 694V192Q431 135 471 104T567 72Q594 72 624 91T685 147T735 250T755 398Q755 750 541 750Z" />
<glyph unicode="q" glyph-name="q" horiz-adv-x="1068" d="M524 788Q474 788 438 762T383 690T356 594T348 486Q348 419 358 357T391 238T455 147T552 112Q585 112 614 122T658 144T672 160V688Q672 697 663 712T638 745T591 775T524 788ZM600 892Q640 892 724
869T836 846Q866 846 908 860Q918 857 937 839T956 810Q932 752 932 582V-138Q932 -286 948 -326Q958 -353 1076 -362Q1083 -373 1083 -400T1076 -436Q940 -422 802 -422T528 -436Q522 -427 522 -400T528 -362Q646 -353 656 -326Q672 -286 672 -138V34Q672 41 672
44T671 55T667 62T660 60Q628 36 561 10T432 -16Q281 -16 173 102T64 384Q64 497 112 595T237 756T409 856T600 892Z" />
<glyph unicode="r" glyph-name="r" horiz-adv-x="898" d="M727 894Q816 894 853 860Q860 849 867 820T875 762Q875 707 839 656T755 604Q742 604 729 610T709 620T686 639T669 654Q666 657 657 665T644 677T631 686T615 694T597 696Q542 696 503 636T463 534V290Q463
142 479 102Q489 77 626 66Q633 55 633 28T626 -8Q490 6 333 6Q196 6 59 -8Q53 1 53 28T59 66Q177 75 187 102Q203 142 203 290V520Q203 650 185 684Q175 703 129 713T59 724Q54 727 54 756T61 786Q165 794 274 826T451 892Q461 889 473 876T485 858Q481 846 473
784T465 700Q465 695 467 693T473 691T477 694Q499 733 519 762T571 825T642 876T727 894Z" />
<glyph unicode="s" glyph-name="s" horiz-adv-x="808" d="M448 896Q490 896 526 891T612 873T672 858Q685 803 699 720T714 612Q714 606 702 602T678 598Q664 598 640 614Q595 816 428 816Q377 816 346 788T314 708Q314 683 323 662T346 626T383 596T425 573T473
551T518 530Q614 482 647 455Q734 385 734 260Q734 188 702 133T615 47T490 0T340 -16Q309 -16 271 -11T211 0T149 15T106 26Q101 56 96 157T90 286Q90 300 120 300Q132 300 146 294T164 280Q174 218 197 174T253 107T316 74T380 64Q431 64 462 96T494 172Q494
201 483 223T448 263T403 293T345 322T288 350Q238 377 205 401T140 457T92 530T76 620Q76 691 111 746T203 833T322 880T448 896Z" />
<glyph unicode="t" glyph-name="t" horiz-adv-x="684" d="M424 856Q424 856 652 856Q664 856 664 830Q664 817 649 795T618 762H424V266Q424 187 450 151T532 114Q563 114 594 132T638 162Q652 148 652 134Q652 127 646 114T636 96Q620 78 596 58T522 12T424 -14Q385
-14 350 -6T280 24T220 78T180 162T164 278V762H22Q12 766 12 788Q38 824 76 856H164V962Q209 1000 290 1085T374 1174Q391 1184 406 1184T424 1174V856Z" />
<glyph unicode="u" glyph-name="u" horiz-adv-x="1132" d="M711 520Q711 650 693 684Q683 703 637 713T567 724Q562 727 562 756T569 786Q673 794 782 826T959 892Q969 889 981 876T993 858Q989 846 982 806T973 744Q971 700 971 618V216Q971 160 989 140T1079
120Q1085 114 1085 94T1073 56Q1022 51 941 34T800 1T729 -14Q722 -14 717 -1T711 34V66Q711 80 705 76Q681 60 649 43T552 8T423 -10Q353 -10 302 19T222 99T180 212T167 348V520Q167 650 149 684Q139 703 93 713T23 724Q18 727 18 756T25 786Q129 794 238 826T415
892Q425 889 437 876T449 858Q445 846 438 806T429 744Q427 700 427 618V438Q427 269 460 191T583 112Q624 112 667 137T711 186V520Z" />
<glyph unicode="v" glyph-name="v" horiz-adv-x="1066" d="M270 872Q405 872 522 886Q530 878 530 850T522 812Q495 812 450 796T404 758Q404 738 408 728L614 334Q706 536 772 684Q794 728 794 758Q794 775 775 787T728 804T682 810T652 812Q645 819 645 847T650
886Q755 872 860 872Q963 872 1068 886Q1074 878 1074 851T1068 812Q1048 812 1021 809T956 789T906 746L598 90Q541 -22 508 -22Q500 -22 484 -6Q447 71 325 324T126 736Q109 775 67 793T0 812Q-8 825 -8 850T0 886Q121 872 270 872Z" />
<glyph unicode="w" glyph-name="w" horiz-adv-x="1578" d="M256 872Q405 872 522 886Q530 878 530 850T522 812Q495 812 450 796T404 758Q404 738 408 728L602 344Q734 640 734 670T716 736Q697 773 655 792T590 812Q580 825 580 850T588 886Q659 877 858 872Q993
872 1110 886Q1118 878 1118 850T1110 812Q1083 812 1038 796T992 758Q992 738 996 728L1164 360Q1236 538 1300 684Q1322 739 1322 758Q1322 775 1303 787T1256 804T1210 810T1180 812Q1173 819 1173 847T1178 886Q1283 872 1388 872Q1473 872 1578 886Q1584 878
1584 851T1578 812Q1469 812 1442 750Q1283 381 1148 88Q1124 35 1095 7T1048 -22Q1040 -22 1024 -6Q868 396 802 552Q774 483 724 367Q676 252 640 170L604 88Q581 36 551 7T504 -22Q496 -22 480 -6Q227 532 126 736Q108 775 66 793T0 812Q-8 825 -8 850T0 886Q121
872 256 872Z" />
<glyph unicode="x" glyph-name="x" horiz-adv-x="1116" d="M311 872Q446 872 563 886Q570 878 570 850T563 812Q535 812 501 801T467 768Q467 765 487 740L615 576Q769 741 769 758T750 787T703 804T657 810T627 812Q620 819 620 847T625 886Q730 872 835 872Q972
872 1077 886Q1083 878 1083 851T1077 812Q973 812 911 748Q832 665 681 492Q729 430 818 319T965 132Q991 98 1034 82T1099 66Q1109 53 1109 28T1101 -8Q1032 1 823 6Q686 6 569 -8Q562 0 562 28T569 66Q597 66 631 77T665 110Q665 113 645 138L503 312Q489 297
454 261T393 197T352 150Q337 130 337 120Q337 103 356 91T403 74T449 68T479 66Q486 59 486 31T481 -8Q376 6 271 6Q122 6 17 -8Q11 0 11 27T17 66Q50 66 101 84T185 134Q242 189 328 282T437 398Q401 447 353 512T264 632T175 748Q149 781 105 796T37 812Q27
825 27 850T35 886Q105 877 311 872Z" />
<glyph unicode="y" glyph-name="y" horiz-adv-x="1068" d="M270 872Q405 872 522 886Q530 878 530 850T522 812Q495 812 450 796T404 758Q404 738 408 728L614 334Q706 536 772 684Q794 728 794 758Q794 775 775 787T728 804T682 810T652 812Q645 819 645 847T650
886Q755 872 860 872Q963 872 1068 886Q1074 878 1074 851T1068 812Q1048 812 1021 809T956 789T906 746Q702 313 576 50Q565 26 536 -36T495 -122T456 -189T400 -269Q266 -436 146 -436Q86 -436 49 -405T12 -330Q12 -268 58 -236Q187 -236 258 -206T388 -80Q418
-29 458 62L126 736Q109 775 67 793T0 812Q-8 825 -8 850T0 886Q121 872 270 872Z" />
<glyph unicode="z" glyph-name="z" horiz-adv-x="920" d="M300 856H576Q703 856 834 872Q840 862 840 824L354 92H582Q664 92 720 157T792 294Q795 308 818 308Q828 308 840 303T859 294T868 288Q856 253 836 181Q816 108 802 54L788 0H78Q58 16 58 34T66 68L514
762Q370 764 306 764Q277 764 252 750T212 719T181 672T160 624T144 576Q140 562 98 562Q74 562 74 570Q101 716 110 868Q228 856 300 856Z" />
<glyph unicode="{" glyph-name="braceleft" horiz-adv-x="814" d="M265 314Q265 314 265 366Q435 463 408 600Q398 652 340 807Q287 946 290 1091Q295 1364 463 1497Q510 1534 535 1503Q564 1467 528 1430Q397 1293 404 1141Q407 1089 474 976Q580 802 544 602Q512
420 373 340Q512 260 544 78Q580 -122 474 -296Q407 -409 404 -461Q397 -613 528 -750Q564 -787 535 -823Q510 -854 463 -817Q295 -684 290 -411Q287 -266 340 -127Q398 28 408 80Q435 217 265 314Z" />
<glyph unicode="|" glyph-name="bar" horiz-adv-x="404" d="M255 -757Q255 -768 166 -786Q161 -787 159 -787Q149 -787 148 -780Q148 -779 148 -776T149 -771V1444Q149 1444 151 1455Q155 1458 159 1460Q193 1470 237 1470Q254 1469 253 1458L255 -757Z" />
<glyph unicode="}" glyph-name="braceright" horiz-adv-x="814" d="M544 314Q374 217 401 80Q411 28 469 -127Q522 -266 519 -411Q514 -684 346 -817Q299 -854 274 -823Q245 -787 281 -750Q412 -613 405 -461Q402 -409 335 -296Q229 -122 265 78Q297 260 436 340Q297
420 265 602Q229 802 335 976Q402 1089 405 1141Q412 1293 281 1430Q245 1467 274 1503Q299 1534 346 1497Q514 1364 519 1091Q522 946 469 807Q411 652 401 600Q374 463 544 366V314Z" />
<glyph unicode="~" glyph-name="asciitilde" horiz-adv-x="1100" d="M522 546Q517 548 488 560T448 576T411 589T368 601T328 608T282 612Q230 612 182 581T110 518Q99 522 96 534Q96 596 176 664T342 732Q385 732 436 720T512 697T590 664Q594 663 615 654T644
642T671 631T702 620T732 612T764 604T796 600T830 598Q882 598 930 629T1002 692Q1013 688 1016 676Q1016 614 936 546T770 478Q747 478 723 481T681 489T636 502T598 515T557 532T522 546Z" />
<glyph unicode="&#xa0;" glyph-name="space" horiz-adv-x="600" />
<glyph unicode="&#xa1;" glyph-name="exclamdown" horiz-adv-x="494" d="M98 738Q98 798 141 842T246 886Q309 886 353 841T398 732Q398 672 354 629T248 586T142 631T98 738ZM240 -420Q190 -420 153 -383T116 -284Q116 -244 147 18T200 422Q213 465 240 474Q248
474 263 464T286 440Q306 318 339 51T372 -286Q372 -347 334 -383T240 -420Z" />
<glyph unicode="&#xa2;" glyph-name="cent" horiz-adv-x="964" d="M852 764Q852 717 820 679T736 640Q721 640 707 645T679 662T657 682T635 707T616 730Q561 792 480 792Q438 792 405 748T356 642T340 516Q340 416 366 342T436 227T528 169T628 150Q761 150 852
250Q862 247 869 236T876 214Q876 185 870 176Q854 151 824 122T748 59T639 4T508 -18Q395 -18 300 31T147 176T88 400Q88 490 131 580T245 739T412 852T610 896Q684 896 737 885T812 860Q852 816 852 764ZM562 962Q632 962 632 946L466 -76Q448 -76 424 -71T396
-58L562 962Z" />
<glyph unicode="&#xa3;" glyph-name="sterling" horiz-adv-x="956" d="M633 1272Q680 1272 709 1261T775 1228Q781 1222 787 1201T793 1164Q793 1111 765 1079T695 1046Q657 1046 635 1059T593 1098Q577 1118 568 1128T541 1149T507 1160Q478 1160 458 1143T428
1091T413 1015T409 918Q409 840 449 729Q455 713 460 698H767Q781 686 777 668T764 635T747 614H483Q489 586 489 566Q489 466 443 378T347 244Q401 274 477 274Q512 274 590 231T723 188Q750 188 771 197T807 225T828 253T845 282Q851 285 861 281T877 268Q887
256 887 230Q877 200 857 164T803 84T721 13T617 -16Q572 -16 528 2T453 43T375 83T279 102Q261 102 237 88T196 59T155 18T125 -12Q113 -12 103 3T93 32Q93 48 100 66T120 103T145 135T172 166T193 188Q228 227 244 304T261 464Q261 515 235 614H95Q86 623 104
660T135 698H213Q199 753 199 768Q199 866 240 961T345 1123T486 1231T633 1272Z" />
<glyph unicode="&#xa4;" glyph-name="currency" horiz-adv-x="1126" d="M576 320Q649 320 693 396T738 588Q738 725 683 818T548 912Q474 912 427 833T380 638Q380 503 438 412T576 320ZM786 910L904 1020Q912 1028 929 1016T962 979T986 932L866 820Q924 723
924 614Q924 495 858 398L966 282Q974 274 962 257T925 224T878 200L774 310Q679 240 562 240Q433 240 334 320L228 220Q220 212 203 224T170 261T146 308L254 410Q194 505 194 614Q194 745 270 846L166 958Q158 966 170 983T207 1016T254 1040L358 930Q448 992
562 992Q688 992 786 910Z" />
<glyph unicode="&#xa5;" glyph-name="yen" horiz-adv-x="1384" d="M523 458H325Q316 467 334 504T365 542H521Q520 550 516 560Q498 602 434 721T316 938L261 1036Q228 1098 199 1146Q180 1178 138 1193T63 1212Q56 1223 56 1250T63 1286Q200 1272 349 1272Q494
1272 631 1286Q637 1277 637 1250T631 1212Q630 1212 620 1212T605 1211T588 1209T569 1205T552 1201T535 1194T522 1185T512 1173T509 1158T523 1126L763 684Q770 677 848 815T1015 1118Q1025 1138 1025 1164Q1025 1201 877 1212Q870 1223 870 1250T877 1286Q1042
1272 1103 1272Q1154 1272 1227 1278T1327 1286Q1333 1277 1333 1250T1327 1212L1314 1211Q1302 1210 1297 1210T1277 1208T1254 1204T1233 1198T1211 1189T1193 1177T1179 1162Q1134 1096 992 864T814 556Q811 549 809 542H997Q1011 530 1007 512T994 479T977
458H804V382H997Q1011 370 1007 352T994 319T977 298H803V290Q801 146 819 102Q829 75 947 66Q954 55 954 28T947 -8Q810 6 661 6Q516 6 379 -8Q373 1 373 28T379 66Q497 75 507 102Q510 109 512 116T515 132T518 149T520 169T521 189T522 212T522 236T523 263T523
290V298H325Q316 307 334 344T365 382H523V458Z" />
<glyph unicode="&#xa6;" glyph-name="brokenbar" horiz-adv-x="420" d="M255 490Q254 480 212 470T159 460Q154 460 152 461T149 464T148 470T149 476V1444Q147 1456 159 1460Q193 1470 239 1470Q247 1470 251 1467T255 1461V1458V490ZM149 -770V188Q147 200 159
204Q193 214 239 214Q247 214 251 211T255 205V202V-756Q254 -766 212 -776T159 -786Q154 -786 152 -785T149 -782T148 -776T149 -770Z" />
<glyph unicode="&#xa7;" glyph-name="section" horiz-adv-x="934" d="M292 -184Q454 -184 569 -80Q576 -73 582 -67Q582 -68 582 -68Q613 -47 658 0T750 109T829 241T862 368Q862 407 855 443T838 506T807 566T772 618T725 670T677 717T622 768Q366 1002 366 1098Q366
1150 414 1178T518 1206Q567 1206 596 1180Q641 1140 678 1140Q756 1140 756 1220Q756 1252 742 1280Q681 1306 642 1306Q480 1306 365 1202Q358 1195 352 1189Q352 1190 352 1190Q321 1169 276 1122T184 1013T105 881T72 754Q72 715 79 679T96 616T127 556T162
504T209 452T257 405T312 354Q568 120 568 24Q568 -28 520 -56T416 -84Q366 -84 344 -62Q300 -18 258 -18Q217 -18 198 -42T178 -104Q178 -132 192 -156Q248 -184 292 -184ZM683 129Q684 140 684 150Q684 183 672 217T644 276T597 334T547 386T490 437T440 482Q399
520 374 544T315 610T262 686T228 767T214 862Q214 923 230 958Q238 974 251 993Q250 982 250 972Q250 939 262 905T290 846T337 788T387 736T444 685T494 640Q535 602 560 578T619 512T672 436T706 355T720 260Q720 200 702 162Q695 147 683 129Z" />
<glyph unicode="&#xa8;" glyph-name="dieresis" horiz-adv-x="814" d="M535 1166T592 1166T690 1126T732 1028T691 930T592 888T495 929T454 1028T494 1125ZM159 1166T216 1166T313 1126T354 1028T314 930T216 888T118 929T76 1028T117 1125Z" />
<glyph unicode="&#xa9;" glyph-name="copyright" horiz-adv-x="1306" d="M882 504Q882 492 869 437T848 378Q836 374 808 363T761 345T714 332T658 326Q529 326 449 403T368 610T456 825T666 910Q690 910 720 905T790 890T840 878Q841 875 848 845T861 787T868
754Q868 751 857 747T838 742Q828 742 826 744Q822 760 815 776T791 812T744 845T672 858Q617 858 580 822T527 734T512 620Q512 517 556 447T682 376Q749 376 786 410Q821 443 844 512Q874 512 882 504ZM196 809T196 620T329 298T652 164T974 297T1108 620T975
942T652 1076T330 943ZM106 396T106 622T266 1008T652 1168Q801 1168 927 1095T1126 896T1200 622T1127 348T927 149T652 76Q426 76 266 236Z" />
<glyph unicode="&#xaa;" glyph-name="ordfeminine" horiz-adv-x="774" d="M372 592Q392 592 411 603T430 622V798Q353 770 332 758Q282 728 282 674Q283 634 311 613T372 592ZM402 1114Q493 1114 556 1054T620 904V654Q620 629 630 617T656 604Q665 604 675 608T693
617T702 622Q706 621 711 611T716 594Q716 582 708 570Q683 548 638 523T552 498Q517 498 484 516T440 560Q420 545 366 521T278 496Q198 496 142 547T86 660Q86 697 109 729T162 772Q364 847 430 870V890V926Q430 978 407 1016T346 1054Q308 1054 292 1028T262
946Q247 888 180 888Q149 888 127 906T104 952T124 1010Q149 1035 234 1074T402 1114Z" />
<glyph unicode="&#xab;" glyph-name="guillemotleft" horiz-adv-x="850" d="M400 683Q230 546 230 345T400 -3Q435 -32 412 -74T340 -92Q213 -27 141 89Q70 206 70 341T143 593T340 772Q390 796 413 755T400 683ZM758 683Q588 546 588 345T758 -3Q793 -32 770
-74T698 -92Q571 -27 499 89Q428 206 428 341T501 593T698 772Q748 796 771 755T758 683Z" />
<glyph unicode="&#xac;" glyph-name="logicalnot" horiz-adv-x="1178" d="M1040 840V338Q1039 337 1020 333T971 324T922 320Q913 320 907 323T898 330L896 334V724H104Q92 724 92 744Q102 840 122 840H1040Z" />
<glyph unicode="&#xad;" glyph-name="uni00AD" horiz-adv-x="748" d="M114 408Q114 452 119 482T129 523T138 534H140L622 558H624Q636 558 636 540Q636 496 630 463Q622 430 616 419L610 408L128 386Q126 386 124 386T118 391T114 408Z" />
<glyph unicode="&#xae;" glyph-name="registered" horiz-adv-x="1306" d="M650 1002Q729 1002 781 963T834 854Q834 810 792 772T712 724Q738 689 769 653T818 596L836 576Q862 546 890 528T931 506T950 502Q951 500 951 495T951 484T950 473V468Q902 464 860
464Q816 464 787 481T728 536L608 698Q600 710 594 710H582V590Q582 532 588 516Q591 509 610 505T640 500Q643 496 643 484T640 468Q592 474 524 474Q454 474 406 468Q403 471 403 483T406 500Q417 500 436 504T458 516Q464 532 464 590V882Q464 940 458 956Q453
968 406 968Q403 972 403 985T406 1002Q442 1000 526 1000Q541 1000 582 1001T650 1002ZM710 848Q710 898 688 931T626 964Q590 964 586 956Q582 946 582 906V748H614Q654 748 682 775T710 848ZM196 911T196 722T329 400T652 266T974 399T1108 722T975 1044T652
1178T330 1045ZM106 498T106 724T266 1110T652 1270Q801 1270 927 1197T1126 998T1200 724T1127 450T927 251T652 178Q426 178 266 338Z" />
<glyph unicode="&#xaf;" glyph-name="overscore" horiz-adv-x="938" d="M1124 1112Q1124 1117 1125 1127T1128 1154T1135 1182T1148 1194H1578Q1588 1194 1588 1180Q1588 1151 1576 1108Q1574 1103 1570 1100T1564 1095L1562 1094H1136Q1135 1094 1133 1094T1128
1098T1124 1112Z" />
<glyph unicode="&#xb0;" glyph-name="degree" horiz-adv-x="580" d="M162 1128T162 1074T199 981T290 942T382 981T420 1074T382 1166T290 1204T199 1166ZM68 1074Q68 1165 133 1229T290 1294T447 1230T512 1074Q512 982 447 916T290 850T134 916T68 1074Z" />
<glyph unicode="&#xb1;" glyph-name="plusminus" horiz-adv-x="1164" d="M122 134H1044Q1052 134 1057 125T1062 106Q1062 56 1032 18H112Q100 18 100 50Q100 62 106 90T122 134ZM122 728H520V1126Q534 1137 562 1142T604 1148Q636 1148 636 1130V728H1044Q1052
728 1057 719T1062 700Q1062 650 1032 612H636V216Q603 194 542 194Q533 194 527 199T520 210V612H112Q100 612 100 644Q100 656 106 684T122 728Z" />
<glyph unicode="&#xb2;" glyph-name="uni00B2" horiz-adv-x="704" d="M620 764Q611 725 582 627T544 508H90Q83 515 76 536Q212 686 314 818Q365 884 386 938T408 1050T371 1143T280 1178Q250 1178 222 1164T180 1134T152 1099L138 1080Q133 1080 127 1081T113
1090T106 1108Q116 1129 137 1155T191 1212T270 1263T366 1284Q474 1284 536 1231T598 1076Q598 1003 554 938T436 806Q334 714 246 650H470Q484 650 497 656T518 668T535 689T548 711T560 737T570 760Q573 770 592 770T620 764Z" />
<glyph unicode="&#xb3;" glyph-name="uni00B3" horiz-adv-x="676" d="M358 1284Q425 1284 487 1241T550 1116Q550 1073 534 1041T493 992T446 966T404 954Q418 953 440 947T493 926T548 889T590 832T608 754Q608 690 576 638T491 555T378 507T256 490Q200 490
155 502T90 532Q72 559 72 586Q72 611 89 633T136 656Q176 656 216 594Q230 571 255 558T306 544Q364 544 396 585T428 708Q428 779 386 832T284 886Q240 886 220 880Q208 898 208 910Q208 926 212 934Q239 938 266 946T323 970T371 1013T390 1076Q390 1126 357
1159T270 1192Q240 1192 210 1177T164 1148T142 1126Q132 1128 122 1137T114 1160Q151 1209 220 1246T358 1284Z" />
<glyph unicode="&#xb4;" glyph-name="acute" horiz-adv-x="472" d="M310 1374Q356 1374 379 1354T402 1316Q402 1281 328 1214T178 1095T90 1044Q80 1044 68 1057T56 1080Q56 1085 86 1134T162 1250T242 1356Q260 1374 310 1374Z" />
<glyph unicode="&#xb5;" glyph-name="mu" horiz-adv-x="1022" d="M460 440Q465 405 475 372T504 304T551 249T616 228Q704 228 774 292T844 434Q830 546 830 658Q830 692 826 844Q856 892 886 892Q906 892 978 861T1050 812Q1050 790 1045 757T1033 699T1015 629T998
564Q990 532 975 477T950 390Q949 332 959 293T988 237T1021 214T1054 208Q1081 208 1104 218T1145 249T1171 282T1192 314Q1200 314 1212 293T1228 258Q1232 242 1224 218Q1149 -8 1062 -8Q1016 -7 979 30T921 122T890 244Q858 130 798 57T658 -16Q587 -16 521
79T442 274Q443 267 447 181T456 3T473 -206T500 -406Q491 -421 466 -437T416 -454Q389 -454 342 -412T294 -350Q294 -301 311 -2T344 432Q344 456 328 596T312 760Q312 824 318 848Q334 892 368 892Q388 892 457 861T526 812Q526 747 498 616Q489 570 476 510T460
440Z" />
<glyph unicode="&#xb6;" glyph-name="paragraph" horiz-adv-x="1058" d="M710 676Q710 676 710 1196Q700 1206 652 1206Q608 1206 596 1194Q596 1194 596 666Q614 666 659 669T710 676ZM708 584Q700 583 676 582T631 579T596 576V236Q596 132 606 104Q609 94 652
94Q692 94 696 102Q708 128 708 224V584ZM808 598V234Q808 148 818 120Q827 96 882 82T964 68Q972 55 972 30T968 -8Q716 6 656 6Q602 6 546 4T428 -3T344 -8Q339 0 339 18T340 51T344 66Q373 66 423 80T484 118Q496 144 496 232V574Q299 574 183 668T66 938Q66
1018 91 1082T155 1187T247 1255T350 1293T454 1304Q513 1304 562 1300T670 1296Q730 1296 790 1299T880 1304L910 1306Q917 1298 917 1268T908 1232Q883 1232 853 1221T816 1192Q810 1171 810 1064V688Q814 687 839 693T886 707L908 714Q916 714 916 694Q914 679
897 651T870 618Q833 601 808 598Z" />
<glyph unicode="&#xb7;" glyph-name="middot" horiz-adv-x="482" d="M94 530Q94 590 137 633T242 676Q302 676 345 633T388 530Q388 469 347 424T246 378Q184 378 139 423T94 530Z" />
<glyph unicode="&#xb8;" glyph-name="cedilla" horiz-adv-x="908" d="M466 -50Q498 -46 510 -46Q550 -46 580 -75T610 -144Q610 -217 558 -264T416 -312Q386 -312 359 -302T320 -280Q312 -268 312 -240Q312 -226 318 -226Q378 -256 414 -256Q461 -256 481 -239T502
-196Q502 -170 490 -150T450 -130Q433 -130 398 -144Q393 -144 383 -133T372 -114Q408 -54 428 -4H492Q476 -32 466 -50Z" />
<glyph unicode="&#xb9;" glyph-name="uni00B9" horiz-adv-x="582" d="M228 1022Q228 1063 218 1089T190 1116Q170 1116 100 1084Q93 1085 86 1098T78 1124T80 1138Q142 1164 220 1200T344 1259T392 1282H394Q399 1282 411 1265T426 1242Q402 1154 402 1072V692Q402
602 422 582Q432 570 466 563T516 556Q519 556 519 531T516 504Q324 512 316 512Q304 512 112 504Q108 508 108 532T112 556Q128 556 163 564T208 584Q215 592 221 633T228 694V1022Z" />
<glyph unicode="&#xba;" glyph-name="ordmasculine" horiz-adv-x="812" d="M388 1046Q362 1046 343 1037T311 1010T291 973T280 926T275 876T274 826Q274 763 288 706T337 607T422 564Q460 564 484 583T520 638T534 705T538 780Q538 843 524 901T474 1002T388
1046ZM404 1106Q551 1106 646 1022T742 810T645 593T406 502Q259 502 165 587T70 800T167 1016T404 1106Z" />
<glyph unicode="&#xbb;" glyph-name="guillemotright" horiz-adv-x="850" d="M450 -3Q621 145 621 346T450 683Q414 712 436 754T510 772Q635 710 707 593T780 340T708 89T510 -92Q462 -116 438 -75T450 -3ZM92 -3Q263 145 263 346T92 683Q56 712 78 754T152 772Q277
710 349 593T422 340T350 89T152 -92Q104 -116 80 -75T92 -3Z" />
<glyph unicode="&#xbc;" glyph-name="onequarter" horiz-adv-x="1474" d="M1288 772Q1296 772 1312 760T1328 734V276H1378Q1417 240 1398 184H1328V4Q1288 -6 1234 -6Q1154 -6 1154 10V184H848Q839 187 832 197T824 218Q859 260 1262 756Q1275 772 1288 772ZM1154
276V524Q1129 494 1045 391T950 276V276V276V276V276V276V276V276V276H951V276V276H952V276H953V276H954V276H955H956V276H957H958H959H960H961H962H963H964H965H966H967H968H969H970H971H972H973H974H975H976H977H978H979H980H981H982H983H984H985H986H987H988H989H990H991H992H993H994H995H996H997H998H999H1000H1001H1002H1003H1004H1005H1006H1007H1008H1009H1010H1011H1012H1013H1014H1015H1016H1017H1018H1019H1020H1021H1022H1023H1024H1025H1026H1027H1028H1030H1031H1032H1033H1034H1035H1036H1037H1038H1039H1040H1041H1042H1043H1044H1045H1047H1048H1049H1050H1051H1052H1053H1054H1055H1056H1058H1059H1060H1061H1062H1063H1064H1065H1066H1068H1069H1070H1071H1072H1073H1074H1075H1077H1078H1079H1080H1081H1082H1083H1084H1086H1087H1088H1089H1090H1091H1092H1094H1095H1096H1097H1098H1099H1100H1102H1103H1104H1105H1106H1107H1108H1109H1111H1112H1113H1114H1115H1116H1117H1119H1120H1121H1122H1123H1124H1125H1126H1127H1129H1130H1131H1132H1133H1134H1135H1136H1137H1138H1139H1141H1142H1143H1144H1145H1154ZM388
1072V692Q388 602 408 582Q418 570 452 563T502 556Q505 556 505 531T502 504Q310 512 302 512Q290 512 98 504Q94 508 94 532T98 556Q114 556 149 564T194 584Q201 592 207 633T214 694V1022Q214 1063 204 1089T176 1116Q156 1116 86 1084Q79 1085 72 1110T66
1138Q128 1164 206 1200T332 1259T380 1282Q410 1248 412 1242Q388 1154 388 1072ZM438 -68Q425 -71 417 -67T406 -56L404 -50L1094 1326Q1114 1356 1166 1368Q1179 1371 1189 1367T1202 1354L512 -22Q507 -33 485 -47T438 -68Z" />
<glyph unicode="&#xbd;" glyph-name="onehalf" horiz-adv-x="1496" d="M1175 772Q1283 772 1345 719T1407 564Q1407 491 1363 426T1245 294Q1143 202 1055 138H1279Q1293 138 1306 144T1327 156T1344 177T1357 199T1369 225T1379 248Q1382 258 1401 258T1429 252Q1420
213 1391 115T1353 -4H899Q892 3 885 24Q1021 174 1123 306Q1174 372 1195 426T1217 538T1180 631T1089 666Q1059 666 1031 652T989 622T961 587L947 568Q942 568 936 569T922 578T915 596Q925 617 946 643T1000 700T1079 751T1175 772ZM391 1072V692Q391 602 411
582Q421 570 455 563T505 556Q508 556 508 531T505 504Q313 512 305 512Q293 512 101 504Q96 508 96 532T101 556Q117 556 152 564T197 584Q204 592 210 633T217 694V1022Q217 1063 207 1089T179 1116Q159 1116 89 1084Q82 1085 74 1106T69 1138Q131 1164 209 1200T335
1259T383 1282Q411 1254 415 1242Q391 1154 391 1072ZM1161 1354L471 -22Q466 -33 444 -47T397 -68Q384 -71 376 -67T365 -56L363 -50L1053 1326Q1073 1356 1125 1368Q1138 1371 1148 1367T1161 1354Z" />
<glyph unicode="&#xbe;" glyph-name="threequarters" horiz-adv-x="1480" d="M1294 772Q1302 772 1318 760T1334 734V276H1384Q1423 240 1404 184H1334V4Q1294 -6 1240 -6Q1160 -6 1160 10V184H854Q845 187 838 197T830 218Q865 260 1268 756Q1281 772 1294 772ZM1160
276V524Q1135 494 1051 391T956 276V276V276V276V276V276V276V276V276H957V276V276H958V276H959V276H960V276H961H962V276H963H964H965H966H967H968H969H970H971H972H973H974H975H976H977H978H979H980H981H982H983H984H985H986H987H988H989H990H991H992H993H994H995H996H997H998H999H1000H1001H1002H1003H1004H1005H1006H1007H1008H1009H1010H1011H1012H1013H1014H1015H1016H1017H1018H1019H1020H1021H1022H1023H1024H1025H1026H1027H1028H1029H1030H1031H1032H1033H1034H1036H1037H1038H1039H1040H1041H1042H1043H1044H1045H1046H1047H1048H1049H1050H1051H1053H1054H1055H1056H1057H1058H1059H1060H1061H1062H1064H1065H1066H1067H1068H1069H1070H1071H1072H1074H1075H1076H1077H1078H1079H1080H1081H1083H1084H1085H1086H1087H1088H1089H1090H1092H1093H1094H1095H1096H1097H1098H1100H1101H1102H1103H1104H1105H1106H1108H1109H1110H1111H1112H1113H1114H1115H1117H1118H1119H1120H1121H1122H1123H1125H1126H1127H1128H1129H1130H1131H1132H1133H1135H1136H1137H1138H1139H1140H1141H1142H1143H1144H1145H1147H1148H1149H1150H1151H1160ZM354
1284Q421 1284 483 1241T546 1116Q546 1073 530 1041T489 992T442 966T400 954Q414 953 436 947T489 926T544 889T586 832T604 754Q604 690 572 638T487 555T374 507T252 490Q196 490 151 502T86 532Q68 559 68 586Q68 611 85 633T132 656Q172 656 212 594Q226
571 251 558T302 544Q360 544 392 585T424 708Q424 779 382 832T280 886Q236 886 216 880Q204 898 204 910Q204 926 208 934Q235 938 262 946T319 970T367 1013T386 1076Q386 1126 353 1159T266 1192Q236 1192 206 1177T160 1148T138 1126Q128 1128 118 1137T110
1160Q147 1209 216 1246T354 1284ZM1228 1354L538 -22Q533 -33 511 -47T464 -68Q451 -71 443 -67T432 -56L430 -50L1120 1326Q1140 1356 1192 1368Q1205 1371 1215 1367T1228 1354Z" />
<glyph unicode="&#xbf;" glyph-name="questiondown" horiz-adv-x="776" d="M660 734Q660 672 617 630T516 588Q453 588 410 630T366 734Q366 796 407 842T508 888Q566 888 613 844T660 734ZM566 450Q580 419 593 362T606 250Q606 209 593 174T552 110T503 63T446
22Q234 -118 234 -198Q234 -234 263 -264T342 -294Q366 -294 395 -275T447 -232T502 -190T562 -170Q617 -170 651 -210T686 -302Q686 -327 677 -356T656 -394Q596 -428 476 -428Q444 -428 398 -419T293 -384T183 -321T99 -219T64 -76Q64 -44 71 -15T87 37T116 82T149
120T190 154T231 182T275 209T316 234Q327 241 358 259T406 289T446 318T480 354Q484 360 486 368T489 386T490 405T491 424T490 438Q493 448 503 461T520 474Q542 474 566 450Z" />
<glyph unicode="&#xc0;" glyph-name="Agrave" horiz-adv-x="1350" d="M766 1496Q766 1486 757 1471T738 1456Q721 1456 635 1491T463 1577T378 1662Q378 1699 416 1718T490 1738Q510 1738 526 1730Q591 1680 678 1594T766 1496ZM188 268L614 1248Q624 1270 648
1297T688 1324Q701 1324 714 1320T730 1310L1140 296Q1154 263 1171 218T1196 152Q1208 124 1232 105T1283 78T1326 69T1354 66Q1361 53 1362 26T1358 -8Q1340 -7 1241 0T1090 8Q1049 8 993 5T872 -2T788 -8Q780 0 780 33T788 66Q817 66 851 75T906 102Q924 117
924 136Q924 144 894 220T834 368L804 440Q796 448 790 448Q752 450 598 450Q460 450 390 448Q381 448 376 438Q326 326 304 270Q260 160 260 134Q260 116 281 102T331 80T382 70T414 66Q422 54 422 27T416 -8Q276 8 200 8Q122 8 -18 -8Q-24 -2 -26 22T-22 64Q0
64 52 85T118 128Q152 184 188 268ZM590 952L420 560Q420 552 424 552Q484 546 590 546Q688 546 750 550Q752 550 754 552Q756 556 756 558V560L590 952Z" />
<glyph unicode="&#xc1;" glyph-name="Aacute" horiz-adv-x="1350" d="M578 1496Q578 1507 665 1593T818 1730Q834 1738 854 1738Q890 1738 928 1719T966 1662Q966 1629 881 1578T710 1491T606 1456Q596 1456 587 1471T578 1496ZM188 268L614 1248Q624 1270 648
1297T688 1324Q701 1324 714 1320T730 1310L1140 296Q1154 263 1171 218T1196 152Q1208 124 1232 105T1283 78T1326 69T1354 66Q1361 53 1362 26T1358 -8Q1340 -7 1241 0T1090 8Q1049 8 993 5T872 -2T788 -8Q780 0 780 33T788 66Q817 66 851 75T906 102Q924 117
924 136Q924 144 894 220T834 368L804 440Q796 448 790 448Q752 450 598 450Q460 450 390 448Q381 448 376 438Q326 326 304 270Q260 160 260 134Q260 116 281 102T331 80T382 70T414 66Q422 54 422 27T416 -8Q276 8 200 8Q122 8 -18 -8Q-24 -2 -26 22T-22 64Q0
64 52 85T118 128Q152 184 188 268ZM590 952L420 560Q420 552 424 552Q484 546 590 546Q688 546 750 550Q752 550 754 552Q756 556 756 558V560L590 952Z" />
<glyph unicode="&#xc2;" glyph-name="Acircumflex" horiz-adv-x="1350" d="M936 1460Q916 1465 828 1508T696 1580Q652 1551 566 1509T456 1460Q436 1470 436 1494Q458 1510 580 1624Q621 1661 670 1720Q687 1740 696 1740Q702 1740 722 1720Q770 1668 806 1632Q918
1523 956 1494Q956 1467 936 1460ZM188 268L614 1248Q624 1270 648 1297T688 1324Q701 1324 714 1320T730 1310L1140 296Q1154 263 1171 218T1196 152Q1208 124 1232 105T1283 78T1326 69T1354 66Q1361 53 1362 26T1358 -8Q1340 -7 1241 0T1090 8Q1049 8 993 5T872
-2T788 -8Q780 0 780 33T788 66Q817 66 851 75T906 102Q924 117 924 136Q924 144 894 220T834 368L804 440Q796 448 790 448Q752 450 598 450Q460 450 390 448Q381 448 376 438Q326 326 304 270Q260 160 260 134Q260 116 281 102T331 80T382 70T414 66Q422 54 422
27T416 -8Q276 8 200 8Q122 8 -18 -8Q-24 -2 -26 22T-22 64Q0 64 52 85T118 128Q152 184 188 268ZM590 952L420 560Q420 552 424 552Q484 546 590 546Q688 546 750 550Q752 550 754 552Q756 556 756 558V560L590 952Z" />
<glyph unicode="&#xc3;" glyph-name="Atilde" horiz-adv-x="1350" d="M550 1708Q585 1708 619 1699T674 1679T730 1650Q846 1586 896 1586Q933 1586 965 1601T1016 1633T1049 1668T1070 1688Q1077 1688 1081 1679T1086 1660Q1086 1615 1048 1564Q969 1466 862
1466Q827 1466 793 1475T738 1495T682 1524Q677 1527 658 1537T633 1551T610 1563T585 1574T563 1582T539 1588T516 1590Q479 1590 447 1575T396 1542T363 1506T342 1486Q335 1486 331 1496T326 1516Q326 1561 364 1612Q441 1708 550 1708ZM188 268L614 1248Q624
1270 648 1297T688 1324Q701 1324 714 1320T730 1310L1140 296Q1154 263 1171 218T1196 152Q1208 124 1232 105T1283 78T1326 69T1354 66Q1361 53 1362 26T1358 -8Q1340 -7 1241 0T1090 8Q1049 8 993 5T872 -2T788 -8Q780 0 780 33T788 66Q817 66 851 75T906 102Q924
117 924 136Q924 144 894 220T834 368L804 440Q796 448 790 448Q752 450 598 450Q460 450 390 448Q381 448 376 438Q326 326 304 270Q260 160 260 134Q260 116 281 102T331 80T382 70T414 66Q422 54 422 27T416 -8Q276 8 200 8Q122 8 -18 -8Q-24 -2 -26 22T-22
64Q0 64 52 85T118 128Q152 184 188 268ZM590 952L420 560Q420 552 424 552Q484 546 590 546Q688 546 750 550Q752 550 754 552Q756 556 756 558V560L590 952Z" />
<glyph unicode="&#xc4;" glyph-name="Adieresis" horiz-adv-x="1350" d="M752 1537T752 1594T791 1689T888 1728T984 1690T1024 1594T985 1498T888 1458T792 1497ZM342 1537T342 1594T380 1689T476 1728T572 1690T612 1594T573 1498T476 1458T381 1497ZM188 268L614
1248Q624 1270 648 1297T688 1324Q701 1324 714 1320T730 1310L1140 296Q1154 263 1171 218T1196 152Q1208 124 1232 105T1283 78T1326 69T1354 66Q1361 53 1362 26T1358 -8Q1340 -7 1241 0T1090 8Q1049 8 993 5T872 -2T788 -8Q780 0 780 33T788 66Q817 66 851
75T906 102Q924 117 924 136Q924 144 894 220T834 368L804 440Q796 448 790 448Q752 450 598 450Q460 450 390 448Q381 448 376 438Q326 326 304 270Q260 160 260 134Q260 116 281 102T331 80T382 70T414 66Q422 54 422 27T416 -8Q276 8 200 8Q122 8 -18 -8Q-24
-2 -26 22T-22 64Q0 64 52 85T118 128Q152 184 188 268ZM590 952L420 560Q420 552 424 552Q484 546 590 546Q688 546 750 550Q752 550 754 552Q756 556 756 558V560L590 952Z" />
<glyph unicode="&#xc5;" glyph-name="Aring" horiz-adv-x="1350" d="M592 1563T592 1518T622 1442T698 1410T773 1441T804 1518T774 1594T698 1626T623 1595ZM500 1437T500 1518T558 1656T698 1714T836 1657T894 1518T837 1379T698 1320T559 1378ZM188 268L614
1248Q624 1270 648 1297T688 1324Q701 1324 714 1320T730 1310L1140 296Q1154 263 1171 218T1196 152Q1208 124 1232 105T1283 78T1326 69T1354 66Q1361 53 1362 26T1358 -8Q1340 -7 1241 0T1090 8Q1049 8 993 5T872 -2T788 -8Q780 0 780 33T788 66Q817 66 851
75T906 102Q924 117 924 136Q924 144 894 220T834 368L804 440Q796 448 790 448Q752 450 598 450Q460 450 390 448Q381 448 376 438Q326 326 304 270Q260 160 260 134Q260 116 281 102T331 80T382 70T414 66Q422 54 422 27T416 -8Q276 8 200 8Q122 8 -18 -8Q-24
-2 -26 22T-22 64Q0 64 52 85T118 128Q152 184 188 268ZM590 952L420 560Q420 552 424 552Q484 546 590 546Q688 546 750 550Q752 550 754 552Q756 556 756 558V560L590 952Z" />
<glyph unicode="&#xc6;" glyph-name="AE" horiz-adv-x="1802" d="M818 550V1040L516 560Q514 552 518 552Q578 546 670 546Q764 546 818 550ZM960 1314Q1008 1314 1290 1320T1610 1328Q1616 1283 1626 1233T1649 1121T1668 1032Q1658 1022 1622 1022Q1596 1022
1590 1038Q1572 1085 1555 1117T1513 1179T1453 1225T1374 1240H1208Q1119 1240 1108 1216Q1098 1192 1098 1094V736Q1098 727 1124 721T1184 714H1290Q1378 714 1410 740T1466 854Q1469 870 1490 870Q1518 870 1528 860V476Q1520 468 1492 468Q1467 468 1464 484Q1438
586 1394 606Q1360 620 1242 620Q1098 620 1098 592V282Q1098 164 1114 124Q1122 105 1161 95T1244 84H1376Q1496 84 1562 150Q1620 208 1670 340Q1673 352 1698 352Q1714 352 1734 348T1758 340Q1754 328 1735 274T1707 195T1684 127T1662 53T1650 -4Q1238 -4
970 -5Q702 -5 674 -6Q668 3 668 30T674 68Q792 77 802 102Q818 142 818 290V450H660Q534 450 464 448Q453 448 448 438Q370 320 338 264Q274 156 270 132Q267 114 283 100T325 80T369 70T398 66Q405 56 405 27T400 -8Q264 8 178 8Q104 8 -40 -8Q-45 -1 -45 22T-38
64Q-15 64 42 85T118 128Q168 189 216 268L804 1208Q804 1212 802 1214Q799 1220 792 1224T775 1232T754 1237T731 1241T709 1243T688 1245T674 1246Q667 1257 667 1284T674 1320Q764 1314 960 1314Z" />
<glyph unicode="&#xc7;" glyph-name="Ccedilla" horiz-adv-x="1348" d="M794 -52Q830 -48 842 -48Q886 -48 918 -79T950 -152Q950 -229 894 -280T742 -332Q672 -332 638 -298Q630 -286 630 -256Q630 -240 636 -240Q700 -272 738 -272Q788 -272 811 -253T834 -208Q834
-138 778 -138Q760 -138 722 -152Q717 -152 706 -140T694 -120Q733 -57 754 -2H822Q804 -32 794 -52ZM774 1334Q1003 1334 1190 1296Q1190 1295 1224 1152T1258 994Q1258 985 1241 975T1206 964Q1186 964 1178 972Q1171 1001 1158 1031T1115 1102T1044 1173T938
1226T792 1248Q690 1248 613 1203T491 1080T424 908T402 704Q402 583 427 474T503 273T638 128T832 74Q987 74 1080 160Q1118 194 1152 254T1201 353T1220 408Q1263 408 1290 384Q1290 356 1259 222T1208 80Q1121 48 1075 33T942 2T770 -14Q584 -14 427 70T176
307T82 644Q82 786 137 914T285 1134T506 1280T774 1334Z" />
<glyph unicode="&#xc8;" glyph-name="Egrave" horiz-adv-x="1204" d="M747 1496Q747 1486 738 1471T719 1456Q702 1456 616 1491T444 1577T359 1662Q359 1699 397 1718T471 1738Q491 1738 507 1730Q572 1680 659 1594T747 1496ZM363 1314Q411 1314 693 1320T1013
1328Q1019 1283 1029 1233T1052 1121T1071 1032Q1061 1022 1025 1022Q999 1022 993 1038Q975 1085 958 1117T916 1179T856 1225T777 1240H611Q522 1240 511 1216Q501 1192 501 1094V736Q501 727 527 721T587 714H693Q781 714 813 740T869 854Q872 870 893 870Q921
870 931 860V476Q923 468 895 468Q870 468 867 484Q841 586 797 606Q763 620 645 620Q501 620 501 592V282Q501 164 517 124Q525 105 564 95T647 84H779Q899 84 965 150Q1023 208 1073 340Q1076 352 1101 352Q1117 352 1137 348T1161 340Q1157 328 1138 274T1110
195T1087 127T1065 53T1053 -4Q155 -4 77 -6Q71 3 71 30T77 68Q195 77 205 102Q221 142 221 290V1026Q221 1174 205 1214Q196 1237 77 1246Q70 1257 70 1284T77 1320Q167 1314 363 1314Z" />
<glyph unicode="&#xc9;" glyph-name="Eacute" horiz-adv-x="1204" d="M459 1496Q459 1507 546 1593T699 1730Q715 1738 735 1738Q771 1738 809 1719T847 1662Q847 1629 762 1578T591 1491T487 1456Q477 1456 468 1471T459 1496ZM363 1314Q411 1314 693 1320T1013
1328Q1019 1283 1029 1233T1052 1121T1071 1032Q1061 1022 1025 1022Q999 1022 993 1038Q975 1085 958 1117T916 1179T856 1225T777 1240H611Q522 1240 511 1216Q501 1192 501 1094V736Q501 727 527 721T587 714H693Q781 714 813 740T869 854Q872 870 893 870Q921
870 931 860V476Q923 468 895 468Q870 468 867 484Q841 586 797 606Q763 620 645 620Q501 620 501 592V282Q501 164 517 124Q525 105 564 95T647 84H779Q899 84 965 150Q1023 208 1073 340Q1076 352 1101 352Q1117 352 1137 348T1161 340Q1157 328 1138 274T1110
195T1087 127T1065 53T1053 -4Q155 -4 77 -6Q71 3 71 30T77 68Q195 77 205 102Q221 142 221 290V1026Q221 1174 205 1214Q196 1237 77 1246Q70 1257 70 1284T77 1320Q167 1314 363 1314Z" />
<glyph unicode="&#xca;" glyph-name="Ecircumflex" horiz-adv-x="1204" d="M837 1460Q817 1465 729 1508T597 1580Q553 1551 467 1509T357 1460Q337 1470 337 1494Q359 1510 481 1624Q522 1661 571 1720Q588 1740 597 1740Q603 1740 623 1720Q671 1668 707 1632Q819
1523 857 1494Q857 1467 837 1460ZM363 1314Q411 1314 693 1320T1013 1328Q1019 1283 1029 1233T1052 1121T1071 1032Q1061 1022 1025 1022Q999 1022 993 1038Q975 1085 958 1117T916 1179T856 1225T777 1240H611Q522 1240 511 1216Q501 1192 501 1094V736Q501
727 527 721T587 714H693Q781 714 813 740T869 854Q872 870 893 870Q921 870 931 860V476Q923 468 895 468Q870 468 867 484Q841 586 797 606Q763 620 645 620Q501 620 501 592V282Q501 164 517 124Q525 105 564 95T647 84H779Q899 84 965 150Q1023 208 1073 340Q1076
352 1101 352Q1117 352 1137 348T1161 340Q1157 328 1138 274T1110 195T1087 127T1065 53T1053 -4Q155 -4 77 -6Q71 3 71 30T77 68Q195 77 205 102Q221 142 221 290V1026Q221 1174 205 1214Q196 1237 77 1246Q70 1257 70 1284T77 1320Q167 1314 363 1314Z" />
<glyph unicode="&#xcb;" glyph-name="Edieresis" horiz-adv-x="1204" d="M653 1537T653 1594T692 1689T789 1728T885 1690T925 1594T886 1498T789 1458T693 1497ZM243 1537T243 1594T281 1689T377 1728T473 1690T513 1594T474 1498T377 1458T282 1497ZM363 1314Q411
1314 693 1320T1013 1328Q1019 1283 1029 1233T1052 1121T1071 1032Q1061 1022 1025 1022Q999 1022 993 1038Q975 1085 958 1117T916 1179T856 1225T777 1240H611Q522 1240 511 1216Q501 1192 501 1094V736Q501 727 527 721T587 714H693Q781 714 813 740T869 854Q872
870 893 870Q921 870 931 860V476Q923 468 895 468Q870 468 867 484Q841 586 797 606Q763 620 645 620Q501 620 501 592V282Q501 164 517 124Q525 105 564 95T647 84H779Q899 84 965 150Q1023 208 1073 340Q1076 352 1101 352Q1117 352 1137 348T1161 340Q1157
328 1138 274T1110 195T1087 127T1065 53T1053 -4Q155 -4 77 -6Q71 3 71 30T77 68Q195 77 205 102Q221 142 221 290V1026Q221 1174 205 1214Q196 1237 77 1246Q70 1257 70 1284T77 1320Q167 1314 363 1314Z" />
<glyph unicode="&#xcc;" glyph-name="Igrave" horiz-adv-x="720" d="M503 1496Q503 1486 494 1471T475 1456Q458 1456 372 1491T200 1577T115 1662Q115 1699 153 1718T227 1738Q247 1738 263 1730Q328 1680 415 1594T503 1496ZM363 1310Q508 1310 645 1324Q651
1315 651 1288T645 1250Q527 1241 517 1214Q501 1174 501 1026V290Q501 142 517 102Q527 75 645 66Q652 55 652 28T645 -8Q508 6 359 6Q214 6 77 -8Q71 1 71 28T77 66Q195 75 205 102Q221 142 221 290V1026Q221 1174 205 1214Q195 1241 77 1250Q70 1261 70 1288T77
1324Q214 1310 363 1310Z" />
<glyph unicode="&#xcd;" glyph-name="Iacute" horiz-adv-x="720" d="M219 1496Q219 1507 306 1593T459 1730Q475 1738 495 1738Q531 1738 569 1719T607 1662Q607 1629 522 1578T351 1491T247 1456Q237 1456 228 1471T219 1496ZM363 1310Q508 1310 645 1324Q651
1315 651 1288T645 1250Q527 1241 517 1214Q501 1174 501 1026V290Q501 142 517 102Q527 75 645 66Q652 55 652 28T645 -8Q508 6 359 6Q214 6 77 -8Q71 1 71 28T77 66Q195 75 205 102Q221 142 221 290V1026Q221 1174 205 1214Q195 1241 77 1250Q70 1261 70 1288T77
1324Q214 1310 363 1310Z" />
<glyph unicode="&#xce;" glyph-name="Icircumflex" horiz-adv-x="720" d="M605 1460Q585 1465 497 1508T365 1580Q321 1551 235 1509T125 1460Q105 1470 105 1494Q127 1510 249 1624Q290 1661 339 1720Q356 1740 365 1740Q371 1740 391 1720Q439 1668 475 1632Q587
1523 625 1494Q625 1467 605 1460ZM363 1310Q508 1310 645 1324Q651 1315 651 1288T645 1250Q527 1241 517 1214Q501 1174 501 1026V290Q501 142 517 102Q527 75 645 66Q652 55 652 28T645 -8Q508 6 359 6Q214 6 77 -8Q71 1 71 28T77 66Q195 75 205 102Q221 142
221 290V1026Q221 1174 205 1214Q195 1241 77 1250Q70 1261 70 1288T77 1324Q214 1310 363 1310Z" />
<glyph unicode="&#xcf;" glyph-name="Idieresis" horiz-adv-x="720" d="M684 1537T684 1594T723 1689T820 1728T916 1690T956 1594T917 1498T820 1458T724 1497ZM274 1537T274 1594T312 1689T408 1728T504 1690T544 1594T505 1498T408 1458T313 1497ZM364 1310Q509
1310 646 1324Q652 1315 652 1288T646 1250Q528 1241 518 1214Q502 1174 502 1026V290Q502 142 518 102Q528 75 646 66Q653 55 653 28T646 -8Q509 6 360 6Q215 6 78 -8Q72 1 72 28T78 66Q196 75 206 102Q222 142 222 290V1026Q222 1174 206 1214Q196 1241 78 1250Q71
1261 71 1288T78 1324Q215 1310 364 1310Z" />
<glyph unicode="&#xd0;" glyph-name="Eth" horiz-adv-x="1530" d="M509 1094V282Q509 164 525 124Q534 104 572 91T651 78Q895 78 1011 217T1127 650Q1127 935 988 1087T619 1240Q530 1240 519 1216Q509 1192 509 1094ZM677 1320Q908 1320 1080 1244T1349 1021T1445
672Q1445 535 1405 422T1294 231T1125 98T911 19T663 -6H85Q79 3 79 30T85 68Q203 77 213 102Q229 142 229 290V1026Q229 1174 213 1214Q204 1237 85 1246Q78 1257 78 1284T85 1320Q175 1314 371 1314Q419 1314 528 1316T677 1320ZM766 616H66Q62 616 60 632T60
668T68 696H766Q772 696 772 663T766 616Z" />
<glyph unicode="&#xd1;" glyph-name="Ntilde" horiz-adv-x="1520" d="M623 1708Q658 1708 692 1699T747 1679T803 1650Q919 1586 969 1586Q1006 1586 1038 1601T1089 1633T1122 1668T1143 1688Q1150 1688 1154 1679T1159 1660Q1159 1615 1121 1564Q1042 1466 935
1466Q900 1466 866 1475T811 1495T755 1524Q750 1527 731 1537T706 1551T683 1563T658 1574T636 1582T612 1588T589 1590Q552 1590 520 1575T469 1542T436 1506T415 1486Q408 1486 404 1496T399 1516Q399 1561 437 1612Q514 1708 623 1708ZM301 1310Q407 1310 519
1324Q546 1269 621 1167T771 972T972 728T1161 496Q1165 510 1165 578V952Q1165 1019 1159 1103T1143 1208Q1133 1231 1076 1241T981 1252Q979 1252 977 1266T975 1299T981 1326Q1017 1324 1095 1317T1225 1310T1365 1317T1477 1326Q1481 1314 1481 1289T1473 1250Q1454
1250 1425 1248T1355 1235T1307 1204Q1300 1184 1294 1100T1287 958V278Q1287 206 1295 -2Q1287 -10 1245 -10Q1218 -10 1183 36L369 1038V314Q369 262 376 202T391 120Q400 96 462 82T555 68Q563 55 563 30T559 -8Q536 -7 447 0T307 8T178 1T63 -8Q58 0 58 18T59
51T63 66Q95 66 154 80T223 118Q233 140 240 200T247 320V1028Q247 1155 211 1208Q199 1225 152 1237T79 1250Q71 1250 70 1283T75 1324Q93 1323 136 1319T219 1313T301 1310Z" />
<glyph unicode="&#xd2;" glyph-name="Ograve" horiz-adv-x="1520" d="M858 1496Q858 1486 849 1471T830 1456Q813 1456 727 1491T555 1577T470 1662Q470 1699 508 1718T582 1738Q602 1738 618 1730Q683 1680 770 1594T858 1496ZM712 1248Q644 1248 590 1217T500
1134T442 1014T410 874T400 726Q400 647 409 571T438 419T489 281T565 170T669 94T802 66Q871 66 926 97T1017 178T1076 297T1110 437T1120 584Q1120 679 1107 770T1062 949T985 1102T869 1208T712 1248ZM630 1334T760 1334T1014 1280T1232 1136T1383 920T1440
656T1383 393T1233 177T1015 34T760 -20T506 33T288 177T137 393T80 656T137 919T287 1136T505 1280Z" />
<glyph unicode="&#xd3;" glyph-name="Oacute" horiz-adv-x="1520" d="M638 1496Q638 1507 725 1593T878 1730Q894 1738 914 1738Q950 1738 988 1719T1026 1662Q1026 1629 941 1578T770 1491T666 1456Q656 1456 647 1471T638 1496ZM712 1248Q644 1248 590 1217T500
1134T442 1014T410 874T400 726Q400 647 409 571T438 419T489 281T565 170T669 94T802 66Q871 66 926 97T1017 178T1076 297T1110 437T1120 584Q1120 679 1107 770T1062 949T985 1102T869 1208T712 1248ZM630 1334T760 1334T1014 1280T1232 1136T1383 920T1440
656T1383 393T1233 177T1015 34T760 -20T506 33T288 177T137 393T80 656T137 919T287 1136T505 1280Z" />
<glyph unicode="&#xd4;" glyph-name="Ocircumflex" horiz-adv-x="1520" d="M1004 1460Q984 1465 896 1508T764 1580Q720 1551 634 1509T524 1460Q504 1470 504 1494Q526 1510 648 1624Q689 1661 738 1720Q755 1740 764 1740Q770 1740 790 1720Q838 1668 874 1632Q986
1523 1024 1494Q1024 1467 1004 1460ZM712 1248Q644 1248 590 1217T500 1134T442 1014T410 874T400 726Q400 647 409 571T438 419T489 281T565 170T669 94T802 66Q871 66 926 97T1017 178T1076 297T1110 437T1120 584Q1120 679 1107 770T1062 949T985 1102T869
1208T712 1248ZM630 1334T760 1334T1014 1280T1232 1136T1383 920T1440 656T1383 393T1233 177T1015 34T760 -20T506 33T288 177T137 393T80 656T137 919T287 1136T505 1280Z" />
<glyph unicode="&#xd5;" glyph-name="Otilde" horiz-adv-x="1520" d="M618 1708Q653 1708 687 1699T742 1679T798 1650Q914 1586 964 1586Q1001 1586 1033 1601T1084 1633T1117 1668T1138 1688Q1145 1688 1149 1679T1154 1660Q1154 1615 1116 1564Q1037 1466 930
1466Q895 1466 861 1475T806 1495T750 1524Q745 1527 726 1537T701 1551T678 1563T653 1574T631 1582T607 1588T584 1590Q547 1590 515 1575T464 1542T431 1506T410 1486Q403 1486 399 1496T394 1516Q394 1561 432 1612Q509 1708 618 1708ZM712 1248Q644 1248 590
1217T500 1134T442 1014T410 874T400 726Q400 647 409 571T438 419T489 281T565 170T669 94T802 66Q871 66 926 97T1017 178T1076 297T1110 437T1120 584Q1120 679 1107 770T1062 949T985 1102T869 1208T712 1248ZM630 1334T760 1334T1014 1280T1232 1136T1383
920T1440 656T1383 393T1233 177T1015 34T760 -20T506 33T288 177T137 393T80 656T137 919T287 1136T505 1280Z" />
<glyph unicode="&#xd6;" glyph-name="Odieresis" horiz-adv-x="1520" d="M828 1537T828 1594T867 1689T964 1728T1060 1690T1100 1594T1061 1498T964 1458T868 1497ZM418 1537T418 1594T456 1689T552 1728T648 1690T688 1594T649 1498T552 1458T457 1497ZM712
1248Q644 1248 590 1217T500 1134T442 1014T410 874T400 726Q400 647 409 571T438 419T489 281T565 170T669 94T802 66Q871 66 926 97T1017 178T1076 297T1110 437T1120 584Q1120 679 1107 770T1062 949T985 1102T869 1208T712 1248ZM630 1334T760 1334T1014 1280T1232
1136T1383 920T1440 656T1383 393T1233 177T1015 34T760 -20T506 33T288 177T137 393T80 656T137 919T287 1136T505 1280Z" />
<glyph unicode="&#xd7;" glyph-name="multiply" horiz-adv-x="930" d="M392 496L108 780Q108 801 129 831T164 862Q174 862 178 858Q468 578 472 574L758 858Q762 862 770 862Q783 862 802 827T822 774Q552 506 546 500L822 214Q822 190 804 159T770 128Q760 128
756 132L466 422L172 128Q168 124 160 124Q147 124 128 160T108 214Q384 488 392 496Z" />
<glyph unicode="&#xd8;" glyph-name="Oslash" horiz-adv-x="1518" d="M712 1248Q644 1248 590 1217T500 1134T442 1014T410 874T400 726Q400 647 409 571T438 419T489 281T565 170T669 94T802 66Q871 66 926 97T1017 178T1076 297T1110 437T1120 584Q1120 679
1107 770T1062 949T985 1102T869 1208T712 1248ZM630 1334T760 1334T1014 1280T1232 1136T1383 920T1440 656T1383 393T1233 177T1015 34T760 -20T506 33T288 177T137 393T80 656T137 919T287 1136T505 1280ZM1082 1352Q1083 1352 1089 1350T1099 1346T1110 1342T1122
1336Q1127 1334 1133 1331Q1140 1328 1144 1326T1152 1320Q1156 1318 1158 1315T1158 1310L404 -36Q324 -6 328 8L1082 1352Z" />
<glyph unicode="&#xd9;" glyph-name="Ugrave" horiz-adv-x="1460" d="M915 1496Q915 1486 906 1471T887 1456Q870 1456 784 1491T612 1577T527 1662Q527 1699 565 1718T639 1738Q659 1738 675 1730Q740 1680 827 1594T915 1496ZM331 1310Q476 1310 613 1324Q619
1315 619 1288T613 1250Q495 1241 485 1214Q469 1174 469 1026V660Q469 541 478 466T519 318Q602 126 823 126Q885 126 941 154T1045 240T1119 394T1147 618V958Q1147 1025 1139 1099T1119 1202Q1103 1240 969 1250Q962 1261 962 1288T969 1324Q1134 1310 1219
1310Q1270 1310 1350 1316T1453 1324Q1459 1315 1459 1288T1453 1250Q1452 1250 1442 1250T1425 1248T1405 1246T1383 1243T1362 1239T1340 1233T1322 1225T1308 1215T1299 1202Q1287 1173 1279 1100T1271 960V572Q1271 453 1242 355T1161 188T1040 73T891 4T723
-18Q592 -18 482 26T301 158Q189 299 189 602V1026Q189 1174 173 1214Q163 1241 45 1250Q38 1261 38 1288T45 1324Q182 1310 331 1310Z" />
<glyph unicode="&#xda;" glyph-name="Uacute" horiz-adv-x="1460" d="M623 1496Q623 1507 710 1593T863 1730Q879 1738 899 1738Q935 1738 973 1719T1011 1662Q1011 1629 926 1578T755 1491T651 1456Q641 1456 632 1471T623 1496ZM331 1310Q476 1310 613 1324Q619
1315 619 1288T613 1250Q495 1241 485 1214Q469 1174 469 1026V660Q469 541 478 466T519 318Q602 126 823 126Q885 126 941 154T1045 240T1119 394T1147 618V958Q1147 1025 1139 1099T1119 1202Q1103 1240 969 1250Q962 1261 962 1288T969 1324Q1134 1310 1219
1310Q1270 1310 1350 1316T1453 1324Q1459 1315 1459 1288T1453 1250Q1452 1250 1442 1250T1425 1248T1405 1246T1383 1243T1362 1239T1340 1233T1322 1225T1308 1215T1299 1202Q1287 1173 1279 1100T1271 960V572Q1271 453 1242 355T1161 188T1040 73T891 4T723
-18Q592 -18 482 26T301 158Q189 299 189 602V1026Q189 1174 173 1214Q163 1241 45 1250Q38 1261 38 1288T45 1324Q182 1310 331 1310Z" />
<glyph unicode="&#xdb;" glyph-name="Ucircumflex" horiz-adv-x="1460" d="M1029 1460Q1009 1465 921 1508T789 1580Q745 1551 659 1509T549 1460Q529 1470 529 1494Q551 1510 673 1624Q714 1661 763 1720Q780 1740 789 1740Q795 1740 815 1720Q863 1668 899 1632Q1011
1523 1049 1494Q1049 1467 1029 1460ZM331 1310Q476 1310 613 1324Q619 1315 619 1288T613 1250Q495 1241 485 1214Q469 1174 469 1026V660Q469 541 478 466T519 318Q602 126 823 126Q885 126 941 154T1045 240T1119 394T1147 618V958Q1147 1025 1139 1099T1119
1202Q1103 1240 969 1250Q962 1261 962 1288T969 1324Q1134 1310 1219 1310Q1270 1310 1350 1316T1453 1324Q1459 1315 1459 1288T1453 1250Q1452 1250 1442 1250T1425 1248T1405 1246T1383 1243T1362 1239T1340 1233T1322 1225T1308 1215T1299 1202Q1287 1173
1279 1100T1271 960V572Q1271 453 1242 355T1161 188T1040 73T891 4T723 -18Q592 -18 482 26T301 158Q189 299 189 602V1026Q189 1174 173 1214Q163 1241 45 1250Q38 1261 38 1288T45 1324Q182 1310 331 1310Z" />
<glyph unicode="&#xdc;" glyph-name="Udieresis" horiz-adv-x="1460" d="M855 1537T855 1594T894 1689T991 1728T1087 1690T1127 1594T1088 1498T991 1458T895 1497ZM445 1537T445 1594T483 1689T579 1728T675 1690T715 1594T676 1498T579 1458T484 1497ZM331
1310Q476 1310 613 1324Q619 1315 619 1288T613 1250Q495 1241 485 1214Q469 1174 469 1026V660Q469 541 478 466T519 318Q602 126 823 126Q885 126 941 154T1045 240T1119 394T1147 618V958Q1147 1025 1139 1099T1119 1202Q1103 1240 969 1250Q962 1261 962 1288T969
1324Q1134 1310 1219 1310Q1270 1310 1350 1316T1453 1324Q1459 1315 1459 1288T1453 1250Q1452 1250 1442 1250T1425 1248T1405 1246T1383 1243T1362 1239T1340 1233T1322 1225T1308 1215T1299 1202Q1287 1173 1279 1100T1271 960V572Q1271 453 1242 355T1161
188T1040 73T891 4T723 -18Q592 -18 482 26T301 158Q189 299 189 602V1026Q189 1174 173 1214Q163 1241 45 1250Q38 1261 38 1288T45 1324Q182 1310 331 1310Z" />
<glyph unicode="&#xdd;" glyph-name="Yacute" horiz-adv-x="1248" d="M581 1496Q581 1507 668 1593T821 1730Q837 1738 857 1738Q893 1738 931 1719T969 1662Q969 1629 884 1578T713 1491T609 1456Q599 1456 590 1471T581 1496ZM467 290V568Q467 581 455 608Q432
656 370 772Q308 890 256 982L205 1074Q172 1136 143 1184Q124 1216 82 1231T7 1250Q0 1261 0 1288T7 1324Q144 1310 293 1310Q438 1310 575 1324Q581 1315 581 1288T575 1250Q574 1250 564 1250T549 1249T532 1247T513 1243T496 1239T479 1232T466 1223T456 1211T453
1196T467 1164L707 722Q714 715 792 853T959 1156Q969 1176 969 1202Q969 1239 821 1250Q814 1261 814 1288T821 1324Q986 1310 1047 1310Q1098 1310 1171 1316T1271 1324Q1277 1315 1277 1288T1271 1250L1258 1249Q1246 1248 1241 1248T1221 1246T1198 1242T1177
1236T1155 1227T1137 1215T1123 1200Q1069 1118 932 895T757 596Q747 576 747 558V290Q745 146 763 102Q773 75 891 66Q898 55 898 28T891 -8Q754 6 605 6Q460 6 323 -8Q317 1 317 28T323 66Q441 75 451 102Q454 109 456 116T459 132T462 149T464 169T465 189T466
212T466 236T467 263T467 290Z" />
<glyph unicode="&#xde;" glyph-name="Thorn" horiz-adv-x="1166" d="M363 1310Q508 1310 645 1324Q651 1315 651 1288T645 1250Q527 1241 517 1214Q501 1176 501 1078V1034Q605 1038 671 1038Q798 1038 899 998T1061 875T1123 682Q1123 566 1067 476T921 339T729
292Q681 292 644 307T591 338T576 388Q576 402 583 402Q610 394 665 394Q739 394 789 467T839 654Q839 776 774 867T611 958Q522 958 511 934Q507 923 505 893T502 837L501 812V290Q501 142 517 102Q527 75 645 66Q652 55 652 28T645 -8Q508 6 359 6Q214 6 77 -8Q71
1 71 28T77 66Q195 75 205 102Q221 142 221 290V1026Q221 1174 205 1214Q195 1241 77 1250Q70 1261 70 1288T77 1324Q214 1310 363 1310Z" />
<glyph unicode="&#xdf;" glyph-name="germandbls" horiz-adv-x="1180" d="M657 1396Q792 1396 899 1319T1007 1126Q1007 1081 989 1043T954 986T905 940Q898 934 876 916T843 888T816 861T794 831T787 804Q787 778 811 743T859 684T927 621T981 572Q1027 527 1052
498T1101 416T1125 306Q1125 233 1094 170T1012 67T903 3T785 -20Q731 -20 679 -5T603 34Q585 70 585 108Q585 159 612 201T683 244Q696 244 707 241T727 233T745 220T759 206T771 188T781 172T790 154T797 140Q833 68 877 68Q941 68 941 164Q941 180 939 195T929
227T916 255T897 285T877 312T852 340T827 366T800 394T773 420Q759 434 723 467T669 520T626 570T592 632T581 696Q581 713 586 729T604 762T626 791T655 824T683 854Q728 904 748 945T769 1050Q769 1111 754 1166T700 1261T607 1302Q544 1302 497 1209T449 972V290Q449
142 465 102Q477 72 551 66Q558 55 558 28T551 -8Q414 6 319 6Q182 6 45 -8Q39 1 39 28T45 66Q163 75 173 102Q189 142 189 290V762H71Q61 766 61 788Q87 824 125 856H189V886Q189 985 232 1080T344 1244T495 1354T657 1396Z" />
<glyph unicode="&#xe0;" glyph-name="agrave" horiz-adv-x="944" d="M240 1292Q240 1310 263 1330T332 1350Q382 1350 400 1332Q434 1293 479 1227T555 1111T586 1056Q586 1047 574 1034T552 1020Q540 1020 465 1071T315 1189T240 1292ZM454 124Q488 124 512 139T536
166V446Q530 443 479 420T404 382Q328 333 332 248Q333 189 371 157T454 124ZM496 898Q622 898 709 812T796 592V218Q796 179 809 158T844 136Q854 136 864 139T880 144Q886 148 894 152L902 156Q916 149 916 122Q916 105 908 92Q887 73 861 53T787 10T702 -12Q654
-12 609 19T550 88Q525 66 448 25T324 -16Q214 -16 138 59T62 228Q62 284 93 329T166 388Q199 399 267 424T417 482T536 528V570V622Q536 700 503 761T418 822Q396 822 379 813T350 790T330 751T315 707T302 654Q283 566 190 566Q148 566 117 593T86 662Q86 695
114 744Q152 782 267 840T496 898Z" />
<glyph unicode="&#xe1;" glyph-name="aacute" horiz-adv-x="944" d="M586 1350Q632 1350 655 1330T678 1292Q678 1257 604 1190T454 1071T366 1020Q356 1020 344 1033T332 1056Q332 1061 362 1110T438 1226T518 1332Q536 1350 586 1350ZM454 124Q488 124 512 139T536
166V446Q530 443 479 420T404 382Q328 333 332 248Q333 189 371 157T454 124ZM496 898Q622 898 709 812T796 592V218Q796 179 809 158T844 136Q854 136 864 139T880 144Q886 148 894 152L902 156Q916 149 916 122Q916 105 908 92Q887 73 861 53T787 10T702 -12Q654
-12 609 19T550 88Q525 66 448 25T324 -16Q214 -16 138 59T62 228Q62 284 93 329T166 388Q199 399 267 424T417 482T536 528V570V622Q536 700 503 761T418 822Q396 822 379 813T350 790T330 751T315 707T302 654Q283 566 190 566Q148 566 117 593T86 662Q86 695
114 744Q152 782 267 840T496 898Z" />
<glyph unicode="&#xe2;" glyph-name="acircumflex" horiz-adv-x="944" d="M680 1020Q664 1025 583 1079T462 1168Q422 1134 345 1082T244 1020Q237 1023 232 1037T226 1066Q274 1114 358 1222Q400 1277 436 1336Q447 1356 462 1356Q466 1356 469 1355T474 1351T480
1344T486 1336Q492 1328 515 1294T560 1232Q648 1116 698 1066Q698 1051 693 1037T680 1020ZM454 124Q488 124 512 139T536 166V446Q530 443 479 420T404 382Q328 333 332 248Q333 189 371 157T454 124ZM496 898Q622 898 709 812T796 592V218Q796 179 809 158T844
136Q854 136 864 139T880 144Q886 148 894 152L902 156Q916 149 916 122Q916 105 908 92Q887 73 861 53T787 10T702 -12Q654 -12 609 19T550 88Q525 66 448 25T324 -16Q214 -16 138 59T62 228Q62 284 93 329T166 388Q199 399 267 424T417 482T536 528V570V622Q536
700 503 761T418 822Q396 822 379 813T350 790T330 751T315 707T302 654Q283 566 190 566Q148 566 117 593T86 662Q86 695 114 744Q152 782 267 840T496 898Z" />
<glyph unicode="&#xe3;" glyph-name="atilde" horiz-adv-x="944" d="M316 1278Q325 1278 334 1277T350 1275T366 1271T380 1265T395 1258T408 1251T422 1243T435 1235T449 1225T462 1216Q499 1189 539 1170T604 1150Q634 1150 659 1165T698 1199T722 1235T738
1256Q754 1256 754 1232Q754 1189 720 1126Q656 1024 570 1024Q561 1024 552 1025T536 1027T520 1031T506 1037T491 1044T478 1051T464 1059T451 1067T437 1077T424 1086Q332 1154 282 1154Q257 1154 237 1144T204 1119T182 1089T167 1061T156 1046Q147 1046 142
1056T136 1076Q136 1122 166 1178Q228 1278 316 1278ZM454 124Q488 124 512 139T536 166V446Q530 443 479 420T404 382Q328 333 332 248Q333 189 371 157T454 124ZM496 898Q622 898 709 812T796 592V218Q796 179 809 158T844 136Q854 136 864 139T880 144Q886 148
894 152L902 156Q916 149 916 122Q916 105 908 92Q887 73 861 53T787 10T702 -12Q654 -12 609 19T550 88Q525 66 448 25T324 -16Q214 -16 138 59T62 228Q62 284 93 329T166 388Q199 399 267 424T417 482T536 528V570V622Q536 700 503 761T418 822Q396 822 379 813T350
790T330 751T315 707T302 654Q283 566 190 566Q148 566 117 593T86 662Q86 695 114 744Q152 782 267 840T496 898Z" />
<glyph unicode="&#xe4;" glyph-name="adieresis" horiz-adv-x="944" d="M567 1302T624 1302T722 1262T764 1164T723 1066T624 1024T527 1065T486 1164T526 1261ZM191 1302T248 1302T345 1262T386 1164T346 1066T248 1024T150 1065T108 1164T149 1261ZM454 124Q488
124 512 139T536 166V446Q530 443 479 420T404 382Q328 333 332 248Q333 189 371 157T454 124ZM496 898Q622 898 709 812T796 592V218Q796 179 809 158T844 136Q854 136 864 139T880 144Q886 148 894 152L902 156Q916 149 916 122Q916 105 908 92Q887 73 861 53T787
10T702 -12Q654 -12 609 19T550 88Q525 66 448 25T324 -16Q214 -16 138 59T62 228Q62 284 93 329T166 388Q199 399 267 424T417 482T536 528V570V622Q536 700 503 761T418 822Q396 822 379 813T350 790T330 751T315 707T302 654Q283 566 190 566Q148 566 117 593T86
662Q86 695 114 744Q152 782 267 840T496 898Z" />
<glyph unicode="&#xe5;" glyph-name="aring" horiz-adv-x="944" d="M386 1274T386 1220T423 1127T514 1088T606 1127T644 1220T606 1312T514 1350T423 1312ZM292 1220Q292 1311 357 1375T514 1440T671 1376T736 1220Q736 1128 671 1062T514 996T358 1062T292 1220ZM454
124Q488 124 512 139T536 166V446Q530 443 479 420T404 382Q328 333 332 248Q333 189 371 157T454 124ZM496 898Q622 898 709 812T796 592V218Q796 179 809 158T844 136Q854 136 864 139T880 144Q886 148 894 152L902 156Q916 149 916 122Q916 105 908 92Q887 73
861 53T787 10T702 -12Q654 -12 609 19T550 88Q525 66 448 25T324 -16Q214 -16 138 59T62 228Q62 284 93 329T166 388Q199 399 267 424T417 482T536 528V570V622Q536 700 503 761T418 822Q396 822 379 813T350 790T330 751T315 707T302 654Q283 566 190 566Q148
566 117 593T86 662Q86 695 114 744Q152 782 267 840T496 898Z" />
<glyph unicode="&#xe6;" glyph-name="ae" horiz-adv-x="1392" d="M404 382Q328 333 332 248Q333 189 371 157T454 124Q493 124 542 151T592 204Q562 298 562 388Q562 416 564 446Q560 445 519 431T450 406T404 382ZM960 812Q919 812 886 784T834 713T807 632T798
564Q811 563 915 569T1056 580Q1082 582 1082 612Q1082 692 1052 752T960 812ZM980 894Q1055 894 1116 874T1216 821T1281 748T1319 668T1330 592Q1330 559 1314 534T1276 508Q1096 492 796 484Q796 404 817 342T868 245T939 188T1012 158T1076 150Q1209 150 1300
250Q1310 247 1317 236T1324 214Q1324 185 1318 176Q1302 151 1272 122T1196 59T1087 4T956 -18Q854 -18 771 19T636 128Q561 68 469 26T324 -16Q214 -16 138 59T62 228Q62 284 93 329T166 388Q290 427 570 526Q576 530 581 544T586 570Q586 614 582 636Q567 719
520 770T418 822Q396 822 379 813T350 790T330 751T315 707T302 654Q283 566 190 566Q148 566 117 593T86 662Q86 695 114 744Q152 782 267 840T496 898Q642 898 730 788Q846 894 980 894Z" />
<glyph unicode="&#xe7;" glyph-name="ccedilla" horiz-adv-x="894" d="M500 -50Q532 -46 544 -46Q584 -46 614 -75T644 -144Q644 -217 592 -264T450 -312Q420 -312 393 -302T354 -280Q346 -268 346 -240Q346 -226 352 -226Q412 -256 448 -256Q495 -256 515 -239T536
-196Q536 -170 524 -150T484 -130Q467 -130 432 -144Q427 -144 417 -133T406 -114Q442 -54 462 -4H526Q510 -32 500 -50ZM826 764Q826 717 794 679T710 640Q695 640 681 645T653 662T631 682T609 707T590 730Q535 792 454 792Q412 792 379 748T330 642T314 516Q314
416 340 342T410 227T502 169T602 150Q735 150 826 250Q836 247 843 236T850 214Q850 185 844 176Q828 151 798 122T722 59T613 4T482 -18Q369 -18 274 31T121 176T62 400Q62 490 105 580T219 739T386 852T584 896Q658 896 711 885T786 860Q826 816 826 764Z" />
<glyph unicode="&#xe8;" glyph-name="egrave" horiz-adv-x="920" d="M254 1292Q254 1310 277 1330T346 1350Q396 1350 414 1332Q448 1293 493 1227T569 1111T600 1056Q600 1047 588 1034T566 1020Q554 1020 479 1071T329 1189T254 1292ZM326 564Q339 563 443 569T584
580Q610 582 610 612Q610 692 580 752T488 812Q447 812 414 784T362 713T335 632T326 564ZM324 484Q324 404 345 342T396 245T467 188T540 158T604 150Q737 150 828 250Q838 247 845 236T852 214Q852 185 846 176Q830 151 800 122T724 59T615 4T484 -18Q371 -18
276 31T123 176T64 400Q64 524 126 638T292 823T508 894Q583 894 644 874T744 821T809 748T847 668T858 592Q858 559 842 534T804 508Q624 492 324 484Z" />
<glyph unicode="&#xe9;" glyph-name="eacute" horiz-adv-x="920" d="M628 1350Q674 1350 697 1330T720 1292Q720 1257 646 1190T496 1071T408 1020Q398 1020 386 1033T374 1056Q374 1061 404 1110T480 1226T560 1332Q578 1350 628 1350ZM326 564Q339 563 443 569T584
580Q610 582 610 612Q610 692 580 752T488 812Q447 812 414 784T362 713T335 632T326 564ZM324 484Q324 404 345 342T396 245T467 188T540 158T604 150Q737 150 828 250Q838 247 845 236T852 214Q852 185 846 176Q830 151 800 122T724 59T615 4T484 -18Q371 -18
276 31T123 176T64 400Q64 524 126 638T292 823T508 894Q583 894 644 874T744 821T809 748T847 668T858 592Q858 559 842 534T804 508Q624 492 324 484Z" />
<glyph unicode="&#xea;" glyph-name="ecircumflex" horiz-adv-x="920" d="M702 1020Q686 1025 605 1079T484 1168Q444 1134 367 1082T266 1020Q259 1023 254 1037T248 1066Q296 1114 380 1222Q422 1277 458 1336Q469 1356 484 1356Q488 1356 491 1355T496 1351T502
1344T508 1336Q514 1328 537 1294T582 1232Q670 1116 720 1066Q720 1051 715 1037T702 1020ZM326 564Q339 563 443 569T584 580Q610 582 610 612Q610 692 580 752T488 812Q447 812 414 784T362 713T335 632T326 564ZM324 484Q324 404 345 342T396 245T467 188T540
158T604 150Q737 150 828 250Q838 247 845 236T852 214Q852 185 846 176Q830 151 800 122T724 59T615 4T484 -18Q371 -18 276 31T123 176T64 400Q64 524 126 638T292 823T508 894Q583 894 644 874T744 821T809 748T847 668T858 592Q858 559 842 534T804 508Q624
492 324 484Z" />
<glyph unicode="&#xeb;" glyph-name="edieresis" horiz-adv-x="920" d="M605 1302T662 1302T760 1262T802 1164T761 1066T662 1024T565 1065T524 1164T564 1261ZM229 1302T286 1302T383 1262T424 1164T384 1066T286 1024T188 1065T146 1164T187 1261ZM326 564Q339
563 443 569T584 580Q610 582 610 612Q610 692 580 752T488 812Q447 812 414 784T362 713T335 632T326 564ZM324 484Q324 404 345 342T396 245T467 188T540 158T604 150Q737 150 828 250Q838 247 845 236T852 214Q852 185 846 176Q830 151 800 122T724 59T615 4T484
-18Q371 -18 276 31T123 176T64 400Q64 524 126 638T292 823T508 894Q583 894 644 874T744 821T809 748T847 668T858 592Q858 559 842 534T804 508Q624 492 324 484Z" />
<glyph unicode="&#xec;" glyph-name="igrave" horiz-adv-x="630" d="M119 1292Q119 1310 142 1330T211 1350Q261 1350 279 1332Q313 1293 358 1227T434 1111T465 1056Q465 1047 453 1034T431 1020Q419 1020 344 1071T194 1189T119 1292ZM469 618V290Q469 142 485
102Q496 74 599 66Q606 55 606 28T599 -8Q462 6 339 6Q202 6 65 -8Q59 1 59 28T65 66Q183 75 193 102Q209 142 209 290V520Q209 650 191 684Q181 703 135 713T65 724Q60 727 60 756T67 786Q171 794 280 826T457 892Q467 889 479 876T491 858Q487 846 480 806T471
744Q469 700 469 618Z" />
<glyph unicode="&#xed;" glyph-name="iacute" horiz-adv-x="630" d="M445 1350Q491 1350 514 1330T537 1292Q537 1257 463 1190T313 1071T225 1020Q215 1020 203 1033T191 1056Q191 1061 221 1110T297 1226T377 1332Q395 1350 445 1350ZM469 618V290Q469 142 485
102Q496 74 599 66Q606 55 606 28T599 -8Q462 6 339 6Q202 6 65 -8Q59 1 59 28T65 66Q183 75 193 102Q209 142 209 290V520Q209 650 191 684Q181 703 135 713T65 724Q60 727 60 756T67 786Q171 794 280 826T457 892Q467 889 479 876T491 858Q487 846 480 806T471
744Q469 700 469 618Z" />
<glyph unicode="&#xee;" glyph-name="icircumflex" horiz-adv-x="630" d="M535 1020Q519 1025 438 1079T317 1168Q277 1134 200 1082T99 1020Q92 1023 87 1037T81 1066Q129 1114 213 1222Q255 1277 291 1336Q302 1356 317 1356Q321 1356 324 1355T329 1351T335
1344T341 1336Q347 1328 370 1294T415 1232Q503 1116 553 1066Q553 1051 548 1037T535 1020ZM469 618V290Q469 142 485 102Q496 74 599 66Q606 55 606 28T599 -8Q462 6 339 6Q202 6 65 -8Q59 1 59 28T65 66Q183 75 193 102Q209 142 209 290V520Q209 650 191 684Q181
703 135 713T65 724Q60 727 60 756T67 786Q171 794 280 826T457 892Q467 889 479 876T491 858Q487 846 480 806T471 744Q469 700 469 618Z" />
<glyph unicode="&#xef;" glyph-name="idieresis" horiz-adv-x="630" d="M449 1302T506 1302T604 1262T646 1164T605 1066T506 1024T409 1065T368 1164T408 1261ZM73 1302T130 1302T227 1262T268 1164T228 1066T130 1024T32 1065T-10 1164T31 1261ZM470 618V290Q470
142 486 102Q497 74 600 66Q607 55 607 28T600 -8Q463 6 340 6Q203 6 66 -8Q60 1 60 28T66 66Q184 75 194 102Q210 142 210 290V520Q210 650 192 684Q182 703 136 713T66 724Q61 727 61 756T68 786Q172 794 281 826T458 892Q468 889 480 876T492 858Q488 846 481
806T472 744Q470 700 470 618Z" />
<glyph unicode="&#xf0;" glyph-name="eth" horiz-adv-x="1080" d="M492 896Q555 896 622 880Q601 941 568 999T484 1117Q475 1127 466 1137L270 1004Q219 1063 230 1074L407 1194Q384 1213 359 1232Q285 1286 194 1326Q187 1366 208 1382Q327 1364 490 1278Q501
1272 513 1266L734 1416Q784 1356 776 1348L588 1220Q689 1151 770 1060Q978 827 978 518Q978 289 851 139T526 -12Q460 -12 397 3T273 54T167 140T94 267T66 436Q66 547 105 637T206 783T343 867T492 896ZM528 812Q477 812 440 778T382 686T352 562T342 424Q342
264 402 168T530 72Q578 72 612 105T665 194T692 314T700 450Q700 634 642 750Q598 812 528 812Z" />
<glyph unicode="&#xf1;" glyph-name="ntilde" horiz-adv-x="1192" d="M467 1278Q476 1278 485 1277T501 1275T517 1271T531 1265T546 1258T559 1251T573 1243T586 1235T600 1225T613 1216Q650 1189 690 1170T755 1150Q785 1150 810 1165T849 1199T873 1235T889
1256Q905 1256 905 1232Q905 1189 871 1126Q807 1024 721 1024Q712 1024 703 1025T687 1027T671 1031T657 1037T642 1044T629 1051T615 1059T602 1067T588 1077T575 1086Q483 1154 433 1154Q408 1154 388 1144T355 1119T333 1089T318 1061T307 1046Q298 1046 293
1056T287 1076Q287 1122 317 1178Q379 1278 467 1278ZM761 892Q829 892 877 873T955 818T1003 722T1026 592T1033 420V290Q1033 142 1049 102Q1059 75 1177 66Q1184 55 1184 28T1177 -8Q1040 6 903 6Q790 6 653 -8Q647 1 647 28T653 66Q746 73 757 102Q773 142
773 290V448Q773 730 639 730Q582 730 523 690T463 618V290Q463 142 479 102Q490 74 593 66Q600 55 600 28T593 -8Q456 6 333 6Q196 6 59 -8Q53 1 53 28T59 66Q177 75 187 102Q203 142 203 290V520Q203 650 185 684Q175 703 129 713T59 724Q54 727 54 756T61 786Q165
794 274 826T451 892Q460 892 472 879T485 858Q483 851 478 823T469 770T465 744Q465 734 467 732Q471 732 481 742Q528 795 612 843T761 892Z" />
<glyph unicode="&#xf2;" glyph-name="ograve" horiz-adv-x="1064" d="M294 1292Q294 1310 317 1330T386 1350Q436 1350 454 1332Q488 1293 533 1227T609 1111T640 1056Q640 1047 628 1034T606 1020Q594 1020 519 1071T369 1189T294 1292ZM508 812Q456 812 422
782T373 696T353 590T348 474Q348 379 368 291T436 136T554 70Q596 70 627 91T674 145T701 225T713 313T716 404Q716 500 696 589T626 745T508 812ZM530 894Q736 894 868 768T1000 450Q1000 325 939 219T771 49T534 -14Q328 -14 196 114T64 434Q64 624 199 759T530
894Z" />
<glyph unicode="&#xf3;" glyph-name="oacute" horiz-adv-x="1064" d="M700 1350Q746 1350 769 1330T792 1292Q792 1257 718 1190T568 1071T480 1020Q470 1020 458 1033T446 1056Q446 1061 476 1110T552 1226T632 1332Q650 1350 700 1350ZM508 812Q456 812 422
782T373 696T353 590T348 474Q348 379 368 291T436 136T554 70Q596 70 627 91T674 145T701 225T713 313T716 404Q716 500 696 589T626 745T508 812ZM530 894Q736 894 868 768T1000 450Q1000 325 939 219T771 49T534 -14Q328 -14 196 114T64 434Q64 624 199 759T530
894Z" />
<glyph unicode="&#xf4;" glyph-name="ocircumflex" horiz-adv-x="1064" d="M754 1020Q738 1025 657 1079T536 1168Q496 1134 419 1082T318 1020Q311 1023 306 1037T300 1066Q348 1114 432 1222Q474 1277 510 1336Q521 1356 536 1356Q540 1356 543 1355T548 1351T554
1344T560 1336Q566 1328 589 1294T634 1232Q722 1116 772 1066Q772 1051 767 1037T754 1020ZM508 812Q456 812 422 782T373 696T353 590T348 474Q348 379 368 291T436 136T554 70Q596 70 627 91T674 145T701 225T713 313T716 404Q716 500 696 589T626 745T508 812ZM530
894Q736 894 868 768T1000 450Q1000 325 939 219T771 49T534 -14Q328 -14 196 114T64 434Q64 624 199 759T530 894Z" />
<glyph unicode="&#xf5;" glyph-name="otilde" horiz-adv-x="1064" d="M412 1278Q421 1278 430 1277T446 1275T462 1271T476 1265T491 1258T504 1251T518 1243T531 1235T545 1225T558 1216Q595 1189 635 1170T700 1150Q730 1150 755 1165T794 1199T818 1235T834
1256Q850 1256 850 1232Q850 1189 816 1126Q752 1024 666 1024Q657 1024 648 1025T632 1027T616 1031T602 1037T587 1044T574 1051T560 1059T547 1067T533 1077T520 1086Q428 1154 378 1154Q353 1154 333 1144T300 1119T278 1089T263 1061T252 1046Q243 1046 238
1056T232 1076Q232 1122 262 1178Q324 1278 412 1278ZM508 812Q456 812 422 782T373 696T353 590T348 474Q348 379 368 291T436 136T554 70Q596 70 627 91T674 145T701 225T713 313T716 404Q716 500 696 589T626 745T508 812ZM530 894Q736 894 868 768T1000 450Q1000
325 939 219T771 49T534 -14Q328 -14 196 114T64 434Q64 624 199 759T530 894Z" />
<glyph unicode="&#xf6;" glyph-name="odieresis" horiz-adv-x="1064" d="M653 1302T710 1302T808 1262T850 1164T809 1066T710 1024T613 1065T572 1164T612 1261ZM277 1302T334 1302T431 1262T472 1164T432 1066T334 1024T236 1065T194 1164T235 1261ZM508 812Q456
812 422 782T373 696T353 590T348 474Q348 379 368 291T436 136T554 70Q596 70 627 91T674 145T701 225T713 313T716 404Q716 500 696 589T626 745T508 812ZM530 894Q736 894 868 768T1000 450Q1000 325 939 219T771 49T534 -14Q328 -14 196 114T64 434Q64 624
199 759T530 894Z" />
<glyph unicode="&#xf7;" glyph-name="divide" horiz-adv-x="1184" d="M466 813T466 864T502 951T590 988T677 952T714 864T678 777T590 740T503 776ZM466 77T466 128T502 215T590 252T677 216T714 128T678 41T590 4T503 40ZM126 446Q114 446 114 478Q114 492 119
519T136 562H1056Q1064 562 1069 553T1074 534Q1074 481 1046 446H126Z" />
<glyph unicode="&#xf8;" glyph-name="oslash" horiz-adv-x="1064" d="M508 812Q456 812 422 782T373 696T353 590T348 474Q348 379 368 291T436 136T554 70Q596 70 627 91T674 145T701 225T713 313T716 404Q716 500 696 589T626 745T508 812ZM530 894Q736 894
868 768T1000 450Q1000 325 939 219T771 49T534 -14Q328 -14 196 114T64 434Q64 624 199 759T530 894ZM746 910Q814 885 810 872L304 -32Q236 -6 240 8L746 910Z" />
<glyph unicode="&#xf9;" glyph-name="ugrave" horiz-adv-x="1132" d="M267 1292Q267 1310 290 1330T359 1350Q409 1350 427 1332Q461 1293 506 1227T582 1111T613 1056Q613 1047 601 1034T579 1020Q567 1020 492 1071T342 1189T267 1292ZM711 520Q711 650 693
684Q683 703 637 713T567 724Q562 727 562 756T569 786Q673 794 782 826T959 892Q969 889 981 876T993 858Q989 846 982 806T973 744Q971 700 971 618V216Q971 160 989 140T1079 120Q1085 114 1085 94T1073 56Q1022 51 941 34T800 1T729 -14Q722 -14 717 -1T711
34V66Q711 80 705 76Q681 60 649 43T552 8T423 -10Q353 -10 302 19T222 99T180 212T167 348V520Q167 650 149 684Q139 703 93 713T23 724Q18 727 18 756T25 786Q129 794 238 826T415 892Q425 889 437 876T449 858Q445 846 438 806T429 744Q427 700 427 618V438Q427
269 460 191T583 112Q624 112 667 137T711 186V520Z" />
<glyph unicode="&#xfa;" glyph-name="uacute" horiz-adv-x="1132" d="M749 1350Q795 1350 818 1330T841 1292Q841 1257 767 1190T617 1071T529 1020Q519 1020 507 1033T495 1056Q495 1061 525 1110T601 1226T681 1332Q699 1350 749 1350ZM711 520Q711 650 693
684Q683 703 637 713T567 724Q562 727 562 756T569 786Q673 794 782 826T959 892Q969 889 981 876T993 858Q989 846 982 806T973 744Q971 700 971 618V216Q971 160 989 140T1079 120Q1085 114 1085 94T1073 56Q1022 51 941 34T800 1T729 -14Q722 -14 717 -1T711
34V66Q711 80 705 76Q681 60 649 43T552 8T423 -10Q353 -10 302 19T222 99T180 212T167 348V520Q167 650 149 684Q139 703 93 713T23 724Q18 727 18 756T25 786Q129 794 238 826T415 892Q425 889 437 876T449 858Q445 846 438 806T429 744Q427 700 427 618V438Q427
269 460 191T583 112Q624 112 667 137T711 186V520Z" />
<glyph unicode="&#xfb;" glyph-name="ucircumflex" horiz-adv-x="1132" d="M759 1020Q743 1025 662 1079T541 1168Q501 1134 424 1082T323 1020Q316 1023 311 1037T305 1066Q353 1114 437 1222Q479 1277 515 1336Q526 1356 541 1356Q545 1356 548 1355T553 1351T559
1344T565 1336Q571 1328 594 1294T639 1232Q727 1116 777 1066Q777 1051 772 1037T759 1020ZM711 520Q711 650 693 684Q683 703 637 713T567 724Q562 727 562 756T569 786Q673 794 782 826T959 892Q969 889 981 876T993 858Q989 846 982 806T973 744Q971 700 971
618V216Q971 160 989 140T1079 120Q1085 114 1085 94T1073 56Q1022 51 941 34T800 1T729 -14Q722 -14 717 -1T711 34V66Q711 80 705 76Q681 60 649 43T552 8T423 -10Q353 -10 302 19T222 99T180 212T167 348V520Q167 650 149 684Q139 703 93 713T23 724Q18 727
18 756T25 786Q129 794 238 826T415 892Q425 889 437 876T449 858Q445 846 438 806T429 744Q427 700 427 618V438Q427 269 460 191T583 112Q624 112 667 137T711 186V520Z" />
<glyph unicode="&#xfc;" glyph-name="udieresis" horiz-adv-x="1132" d="M670 1302T727 1302T825 1262T867 1164T826 1066T727 1024T630 1065T589 1164T629 1261ZM294 1302T351 1302T448 1262T489 1164T449 1066T351 1024T253 1065T211 1164T252 1261ZM711 520Q711
650 693 684Q683 703 637 713T567 724Q562 727 562 756T569 786Q673 794 782 826T959 892Q969 889 981 876T993 858Q989 846 982 806T973 744Q971 700 971 618V216Q971 160 989 140T1079 120Q1085 114 1085 94T1073 56Q1022 51 941 34T800 1T729 -14Q722 -14 717
-1T711 34V66Q711 80 705 76Q681 60 649 43T552 8T423 -10Q353 -10 302 19T222 99T180 212T167 348V520Q167 650 149 684Q139 703 93 713T23 724Q18 727 18 756T25 786Q129 794 238 826T415 892Q425 889 437 876T449 858Q445 846 438 806T429 744Q427 700 427 618V438Q427
269 460 191T583 112Q624 112 667 137T711 186V520Z" />
<glyph unicode="&#xfd;" glyph-name="yacute" horiz-adv-x="1068" d="M778 1350Q824 1350 847 1330T870 1292Q870 1257 796 1190T646 1071T558 1020Q548 1020 536 1033T524 1056Q524 1061 554 1110T630 1226T710 1332Q728 1350 778 1350ZM270 872Q405 872 522
886Q530 878 530 850T522 812Q495 812 450 796T404 758Q404 738 408 728L614 334Q706 536 772 684Q794 728 794 758Q794 775 775 787T728 804T682 810T652 812Q645 819 645 847T650 886Q755 872 860 872Q963 872 1068 886Q1074 878 1074 851T1068 812Q1048 812
1021 809T956 789T906 746Q702 313 576 50Q565 26 536 -36T495 -122T456 -189T400 -269Q266 -436 146 -436Q86 -436 49 -405T12 -330Q12 -268 58 -236Q187 -236 258 -206T388 -80Q418 -29 458 62L126 736Q109 775 67 793T0 812Q-8 825 -8 850T0 886Q121 872 270
872Z" />
<glyph unicode="&#xfe;" glyph-name="thorn" horiz-adv-x="1070" d="M615 896Q732 896 823 835T960 677T1007 468Q1007 358 962 264T844 111T687 18T517 -16Q492 -16 465 -12T421 -3T401 2Q395 2 395 -30V-138Q395 -286 411 -326Q421 -353 539 -362Q546 -373 546
-400T539 -436Q402 -422 265 -422T-9 -436Q-15 -427 -15 -400T-9 -362Q109 -353 119 -326Q135 -286 135 -138V1116Q135 1178 121 1212Q114 1228 71 1238T1 1248Q-3 1248 -5 1262T-6 1292T1 1312Q64 1318 126 1328T232 1348T312 1368T366 1384T387 1390Q395 1389
405 1377T417 1356Q395 1232 395 1152V788Q395 782 396 780Q398 771 403 776Q450 826 510 861T615 896ZM505 750Q471 750 444 738T406 713T395 694V192Q395 135 435 104T531 72Q558 72 588 91T649 147T699 250T719 398Q719 750 505 750Z" />
<glyph unicode="&#xff;" glyph-name="ydieresis" horiz-adv-x="1068" d="M699 1302T756 1302T854 1262T896 1164T855 1066T756 1024T659 1065T618 1164T658 1261ZM323 1302T380 1302T477 1262T518 1164T478 1066T380 1024T282 1065T240 1164T281 1261ZM270 872Q405
872 522 886Q530 878 530 850T522 812Q495 812 450 796T404 758Q404 738 408 728L614 334Q706 536 772 684Q794 728 794 758Q794 775 775 787T728 804T682 810T652 812Q645 819 645 847T650 886Q755 872 860 872Q963 872 1068 886Q1074 878 1074 851T1068 812Q1048
812 1021 809T956 789T906 746Q702 313 576 50Q565 26 536 -36T495 -122T456 -189T400 -269Q266 -436 146 -436Q86 -436 49 -405T12 -330Q12 -268 58 -236Q187 -236 258 -206T388 -80Q418 -29 458 62L126 736Q109 775 67 793T0 812Q-8 825 -8 850T0 886Q121 872
270 872Z" />
<glyph unicode="&#x2013;" glyph-name="endash" horiz-adv-x="1120" d="M116 406Q116 429 123 482T144 536H994Q1006 536 1006 518Q1006 474 988 402Q986 397 982 394T976 389L974 388H128Q127 388 125 388T120 392T116 406Z" />
<glyph unicode="&#x2014;" glyph-name="emdash" horiz-adv-x="1888" d="M116 406Q116 429 123 482T144 536H1764Q1776 536 1776 518Q1776 474 1758 402Q1756 397 1752 394T1746 389L1744 388H128Q127 388 125 388T120 392T116 406Z" />
<glyph unicode="&#x2018;" glyph-name="quoteleft" horiz-adv-x="420" d="M90 1096Q90 1224 176 1322Q252 1406 314 1443Q342 1459 350 1458Q364 1458 378 1446T400 1415Q260 1329 260 1238Q260 1161 308 1108Q361 1050 361 1022Q361 978 316 940T215 902Q161
902 126 928Q90 980 90 1096Z" />
<glyph unicode="&#x2019;" glyph-name="quoteright" horiz-adv-x="420" d="M380 1264Q380 1136 294 1038Q218 954 156 917Q128 901 120 902Q106 902 92 914T70 945Q210 1031 210 1122Q210 1199 162 1252Q109 1310 109 1338Q109 1382 154 1420T255 1458Q309 1458
344 1432Q380 1380 380 1264Z" />
<glyph unicode="&#x201a;" glyph-name="quotesinglbase" horiz-adv-x="420" d="M350 102Q350 -26 264 -124Q188 -208 126 -245Q98 -261 90 -260Q76 -260 62 -248T40 -217Q180 -131 180 -40Q180 37 132 90Q79 148 79 176Q79 220 124 258T225 296Q279 296 314 270Q350
218 350 102Z" />
<glyph unicode="&#x201c;" glyph-name="quotedblleft" horiz-adv-x="766" d="M436 1096Q436 1224 522 1322Q598 1406 660 1443Q688 1459 696 1458Q710 1458 724 1446T746 1415Q606 1329 606 1238Q606 1161 654 1108Q707 1050 707 1022Q707 978 662 940T561 902Q507
902 472 928Q436 980 436 1096ZM90 1096Q90 1224 176 1322Q252 1406 314 1443Q342 1459 350 1458Q364 1458 378 1446T400 1415Q260 1329 260 1238Q260 1161 308 1108Q361 1050 361 1022Q361 978 316 940T215 902Q161 902 126 928Q90 980 90 1096Z" />
<glyph unicode="&#x201d;" glyph-name="quotedblright" horiz-adv-x="766" d="M726 1264Q726 1136 640 1038Q564 954 502 917Q474 901 466 902Q452 902 438 914T416 945Q556 1031 556 1122Q556 1199 508 1252Q455 1310 455 1338Q455 1382 500 1420T601 1458Q655
1458 690 1432Q726 1380 726 1264ZM380 1264Q380 1136 294 1038Q218 954 156 917Q128 901 120 902Q106 902 92 914T70 945Q210 1031 210 1122Q210 1199 162 1252Q109 1310 109 1338Q109 1382 154 1420T255 1458Q309 1458 344 1432Q380 1380 380 1264Z" />
<glyph unicode="&#x201e;" glyph-name="quotedblbase" horiz-adv-x="766" d="M350 102Q350 -26 264 -124Q188 -208 126 -245Q98 -261 90 -260Q76 -260 62 -248T40 -217Q180 -131 180 -40Q180 37 132 90Q79 148 79 176Q79 220 124 258T225 296Q279 296 314 270Q350
218 350 102ZM696 102Q696 -26 610 -124Q534 -208 472 -245Q444 -261 436 -260Q422 -260 408 -248T386 -217Q526 -131 526 -40Q526 37 478 90Q425 148 425 176Q425 220 470 258T571 296Q625 296 660 270Q696 218 696 102Z" />
<glyph unicode="&#x2022;" glyph-name="bullet" horiz-adv-x="842" d="M142 410T142 526T224 725T422 808T618 725T700 526T619 328T422 246Q306 246 224 328Z" />
<glyph unicode="&#x2039;" glyph-name="guilsinglleft" horiz-adv-x="630" d="M52 480T52 496T66 526Q120 558 171 592T262 657T337 715T399 767T443 806T473 834T486 846Q498 844 516 833T540 808Q535 800 486 740T371 604T272 496Q305 464 370 388T485 252T540
184Q535 171 517 160T486 146Q485 147 474 158T444 185T399 225T338 276T262 335T171 399T66 466Q52 480 52 496Z" />
<glyph unicode="&#x203a;" glyph-name="guilsinglright" horiz-adv-x="630" d="M578 512T578 496T564 466Q510 434 459 400T368 335T293 277T231 225T187 186T157 158T144 146Q132 148 114 159T90 184Q95 192 144 252T259 388T358 496Q325 528 260 604T145 740T90
808Q95 821 113 832T144 846Q145 845 156 834T186 807T231 767T292 716T368 657T459 593T564 526Q578 512 578 496Z" />
</font>
</defs>
</svg>
